<svg width="101" height="34" viewBox="0 0 85 30" fill="none" xmlns="http://www.w3.org/2000/svg">
<path fill-rule="evenodd" clip-rule="evenodd" d="M76.3383 23.8751C82.0146 24.7929 85 25.701 85 25.701L84.8891 26.099C81.9661 25.3947 78.9599 24.829 75.9041 24.3828C75.2423 24.9907 74.3057 25.2741 71.579 25.2741C71.2575 25.2741 71.0765 25.2582 70.8486 25.2382C70.7687 25.2312 70.683 25.2237 70.5835 25.2162V23.7291C37.1217 20.3522 0 29.7594 0 29.7594L0.605163 27.7959C32.3762 20.7695 56.4384 21.4304 70.5777 23.0779V21.8585H71.5732C71.9301 21.8585 72.772 21.8585 73.1554 21.4786C73.4615 21.2157 73.7167 20.5717 73.7167 19.9578C73.7167 19.6358 73.5631 19.0509 73.4361 18.671L69.3662 5.55642V20.6634H65.6925V18.9966C65.2387 19.6985 64.3713 20.9854 62.2279 20.9854C59.0889 20.9854 56.741 18.0607 56.741 13.3246C56.741 7.35946 60.0082 5.13672 62.5085 5.13672C63.9625 5.13672 65.1116 5.98457 65.7745 7.4475V5.48888H69.372V5.51783H73.4418L75.8429 15.7222L78.0372 5.51783H81.8483L77.6457 20.5428C77.3777 21.4859 76.9539 22.9669 76.3383 23.8751ZM62.9012 17.4396C63.131 17.4396 63.8713 17.3841 64.5353 16.5954C65.3253 15.6016 65.5043 14.2858 65.502 12.9145C65.502 10.9559 65.0423 9.93196 64.5584 9.37718C64.1861 8.90764 63.6383 8.62817 63.0548 8.61013C62.3653 8.61013 61.6539 9.04793 61.1919 9.7209C60.5544 10.6845 60.4008 11.8833 60.4008 13.0532C60.4008 13.9891 60.5036 14.896 60.8085 15.6559C61.319 16.9716 62.162 17.4396 62.9012 17.4396Z" fill="#2C2C2C"/>
<path d="M45.8962 20.7026L48.0786 10.5673L50.2874 20.7026H53.7642L57.5719 5.70264H53.7642L51.7599 15.0855L49.728 5.70264H46.4292L44.3743 15.0855L42.37 5.70264H38.5623L42.37 20.7026H45.8962V20.7026Z" fill="#2C2C2C"/>
<path fill-rule="evenodd" clip-rule="evenodd" d="M14.176 16.3131H8.25743L7.07857 20.7029H2.44409L8.75489 0.0424805H13.4692L19.5301 19.0915V5.58242H23.2668V7.62257C23.274 7.60647 23.2811 7.59014 23.2884 7.57357C23.465 7.17244 23.7007 6.63707 24.2895 6.13281C24.9547 5.5487 25.9254 5.22715 26.8717 5.22715C27.3679 5.22935 27.8602 5.31809 28.3282 5.48969C29.8368 6.075 30.2706 7.30101 30.4499 7.8261C31.6265 5.57761 33.4925 5.25725 34.4886 5.25725C35.7161 5.25725 36.7897 5.72454 37.5058 6.45436C38.783 7.73939 38.8339 9.14003 38.8339 12.6434V20.6992H35.0763V13.5455C35.0763 11.1212 35.0254 10.625 34.6425 9.98307C34.2329 9.28576 33.6452 9.14003 33.083 9.14003C32.4386 9.13661 31.8341 9.46475 31.468 10.0168C31.0585 10.7466 31.0585 12.0015 31.0585 13.2275V13.2275V20.7029H27.2986V13.0818C27.2986 11.4463 27.2986 10.7165 26.9191 10.0409C26.5954 9.48028 26.0134 9.13711 25.3851 9.13642C25.045 9.13751 24.7107 9.22824 24.4133 9.40017C23.3143 10.0385 23.2888 11.1513 23.2888 14.0128V20.7029H15.3827L14.176 16.3131ZM13.1557 12.5387L11.1381 4.57801L9.22227 12.5387H13.1557Z" fill="#2C2C2C"/>
<path d="M78.7985 23.2499V21.8493H79.2971V21.5518H77.9393V21.8493H78.4516V23.2499H78.7985V23.2499Z" fill="#2C2C2C"/>
<path d="M80.864 23.2499H81.1981V21.5614H80.7526L80.3895 22.841L80.0064 21.5518H79.5687V23.2402H79.9028L79.8839 22.2669C79.8828 22.154 79.8749 22.0412 79.8605 21.9293C79.8694 21.9703 79.9229 22.1596 79.9318 22.2006L80.2291 23.2499H80.5287L80.825 22.2103C80.8495 22.1126 80.8773 22.0004 80.8963 21.9293C80.8963 21.9908 80.8773 22.1705 80.8773 22.2766L80.864 23.2499Z" fill="#2C2C2C"/>
</svg>
