<svg xmlns="http://www.w3.org/2000/svg" height="800" width="1200" version="1.0" viewBox="-115.2 -244.75 998.4 1468.5"><g fill="#cc0113"><path d="M0 0h.06C.05.02.02.05 0 .06zm43.44 233.39c.02-41.87-.14-83.74.08-125.61 16.15.22 32.32-.34 48.46.35 8.98-.48 17.99-.53 26.96.01 12.38-.44 24.73.11 37.11-.34 10.33-.33 20.65.84 30.97.03 11.33-.03 22.65 0 33.97.39 2.34-.03 4.67-.14 7-.37 10.66-.01 21.33-.09 32 .02 7.61.86 15.23-.65 22.85.22 6.73.13 13.46-.57 20.2.04 11-.99 22.02.6 33.01-.32 8.66.72 17.32-.47 25.97.21 6.72.55 13.43-.49 20.14.07 6.27-.76 12.54.43 18.81-.18 6.96-.17 13.94-.21 20.9.2 4.7-.18 9.42-.53 14.12-.09 7.35.6 14.7-.38 22.06-.22 3.99-.07 7.98.58 11.98.29 6.66-.67 13.32.43 19.99.09 17.97-1.01 35.96.35 53.92-.27 6.31.47 12.63.3 18.94-.04 8.05.61 16.11-.48 24.18.04 6.32.65 12.65-.56 18.97.25 9.32-.28 18.67-.61 28-.17 3.92.43 7.84-.26 11.77-.18 8.74.41 17.49-.4 26.23.28 11.63-.52 23.28-.2 34.92-.25 5.86.45 11.75.48 17.61-.16 1.3 6.41-.51 12.91.56 19.36.18 19.65.02 39.31.08 58.96-.16 10.95.38 21.92-.44 32.85-.21 4.91.57 9.79.52 14.7-6.06 1.32-12.2-.2-18.3.39-5.65.67-11.31-.45-16.96.13-9.66-.72-19.34.81-28.99-.33-8.32.74-16.66.32-24.99.41-50.36.02-100.71-.08-151.06-.04-19.65-.67-39.32-.26-58.98-.37-127.52-.19-255.04-.3-382.56-.35m31.87-113.1c-5.11 4.98-4.91 13.31-1.8 19.3-1.6.04-3.19.08-4.79.13-.04 3.88-.07 7.76-.03 11.64 2.34-.02 4.68-.03 7.03-.01.17 13.91.04 27.82.08 41.73-.23 3.17 3.31 4.13 5.32 5.76 2.76 1.75 5.51 3.5 8.31 5.17.19-17.71.03-35.43.09-53.15 10.85.11 21.74-.31 32.57.36-7 1.84-14.45-.47-21.45 1.38-2.51 1.61-3.98 4.58-4.11 7.52.2 2.25 1.31 4.28 2.08 6.37l.72-.14c.53.87 1.07 1.74 1.61 2.6-2.08 2.68-4.77 5.44-4.72 9.07-.21 2.74.84 5.33 1.74 7.86 5.05 7.13 12.43 12.01 20.11 15.89 2.12.98 4.12 2.5 6.48 2.81 1.91-.4 3.32-2.21 3.15-4.19-.98-1.44-1.86-2.93-2.71-4.44-5.59-2.7-11.37-5.93-14.38-11.63 0-1.61-.01-3.21-.02-4.81 1.06-.94 2.13-1.87 3.21-2.79 5-.95 10.16-1.33 15.09.26-3.16 2.53-8.46 1.59-10.02 6.01-.25.85-.49 1.71-.71 2.57 2.05 2.42 4.11 4.83 6.07 7.32 2.54-.15 5.22-.54 7.22-2.26 3.81-3.14 7.88-7.34 7.26-12.71.13-5.34-5.02-8.26-8.55-11.34-7.43-3.13-15.79-.2-23.45-2.43 8.91-.57 17.88-.17 26.82-.47-.01-4.09 0-8.18-.02-12.27 5.51-.05 11.05.18 16.54-.48 13.47-.18 26.95-.15 40.4.77-.58.4-1.73 1.21-2.31 1.61-3.77-.01-7.54-.12-11.3.06-2.83-.05-4.99 1.98-7.19 3.46-.13.65-.38 1.95-.51 2.6-7.4.46-14.82.05-22.22.22-2.02-.06-3.84.91-5.62 1.74-.34 1.85-1.24 3.8-.51 5.68 2.05 5.69 5.96 10.73 10.86 14.24 2.33 1.83 5.15.39 7.66-.16.73-3.11.97-6.31 1.05-9.5 1.65.07 3.31.06 4.96.27 1.49 3.09 2.15 6.61 4.37 9.33 2.37 3.42 5.93 5.67 9.4 7.83 5.12 2.21 10.78 1.84 16.21 1.53.54.69 1.6 2.08 2.13 2.77-6.35.29-12.31 2.73-17.65 6.05.27.04.81.1 1.08.14 1.85 2.94 4.04 5.66 6.14 8.43 2.41-.52 4.79-1.17 7.2-1.7 1.23-.99 2.47-1.98 3.7-2.96 1.01-.01 3.03-.03 4.04-.03-.08 1.34-.17 2.69-.27 4.04-.97.9-1.92 1.82-2.87 2.75-9.71 3.56-21.01 1.4-29.5-4.28-2.75-1.43-2.9-4.83-3.92-7.41-2.2 1.9-4.5 3.67-6.79 5.44l.06 2.48c3.89 6.46 11.06 9.52 17.35 13.07 10.07 4.54 22.66 6.48 32.35-.01 5.4-3.58 7.23-10.4 6.13-16.53-.73-1.23-1.44-2.46-2.17-3.69.02-.5.05-1.51.07-2.02-3.37-3.44-6.44-7.16-9.72-10.69.84-1.06 1.67-2.13 2.5-3.2.38-1.07.78-2.12 1.2-3.17.77-3.88-.77-7.47-3.09-10.5-2.76-1.2-5.89-2.7-8.85-1.16-4.3 1.43-5.46 6.29-6.02 10.26-4.15.08-8.28-.56-11.96-2.54-.29-3.13.18-6.25 1.04-9.26.58-.36 1.73-1.09 2.3-1.46 7.54-.04 15.07.01 22.61-.02.02-4.68.02-9.35.01-14.02 6.49-.01 12.97-.02 19.46.01.02 3 .01 6 .01 9-2.98-.05-5.82.81-8.35 2.36-1.5 5.6 1.05 10.98 4.42 15.32 6.08 8.63 13.35 16.35 20.89 23.71 3.18-1.61 6.33-3.27 9.52-4.87-8.66-4.88-14.89-12.72-21.35-20.05 1.5-1.33 2.99-2.69 4.37-4.16 1.1-.26 2.24-.41 3.28.18 2.93 1.35 6.07 2.09 9.24 2.66 4.13 10.14 11.21 18.62 18.02 27.05.31-.07.95-.21 1.26-.28 1.22-.88 2.45-1.75 3.7-2.6-.34-2.25-.81-4.47-1.44-6.65a73.176 73.176 0 01-7.17-9.97c-2.51-4.34-4.68-9.59-2.47-14.51 6.56-.8 13.18-.09 19.75-.79.15 9.12.11 18.23.06 27.35 4.37 2.97 8.91 5.71 13.15 8.87.82-3.92.56-7.92.59-11.88-.02-13.58 0-27.15.03-40.72 2.68-.02 5.35-.01 8.04.03-.02 14.62-.08 29.23.02 43.85 4.49 2.83 9.02 5.63 13.21 8.91 1.33-17.76-.33-35.6.73-53.37 11.09-.1 22.14.87 33.24.57.01 2.75.01 5.5.02 8.26-7.58-.01-15.17-.12-22.75.02-2.28-.12-3.95 1.57-5.51 2.96-.61 6.18 3.64 11.22 7.37 15.64 2.23 2.14 4.84 3.92 8.01 4.24.68-.31 2.05-.93 2.73-1.24 1.81-2.85 1.43-6.34 1.72-9.55 2.78 0 5.56.01 8.34-.01.03 1.08.06 2.15.1 3.23.32 6.96-.86 14.09.75 20.92 4.44 2.55 8.59 5.59 12.94 8.29.13-17.59.02-35.18.06-52.77 3.14-.05 6.29-.06 9.44-.04.04-3.75.05-7.5.05-11.24-73.29 0-146.59.01-219.88-.01-5.97-.57-11.97-.31-17.96-.52-2.43-3.09-5.28-5.81-8.12-8.52-5.57-4.68-11.4-9.1-17.93-12.37-4.75-2.07-9.78-3.51-15-3.53-4.98-.05-10.28 1.25-13.68 5.13m320.18-3.89c.55 1.83 1.09 3.68 1.66 5.51.73 2.98 1.58 5.93 2.45 8.87 2.12-.62 4.24-1.24 6.33-1.96 2.02-.46 4.05-.93 6.08-1.34 3.44 3.96 6.59 8.16 10.1 12.07-.62.03-1.85.07-2.47.1-8.94.48-17.88.39-26.82.65.04 3.36.03 6.72.02 10.08.92.37 1.85.74 2.79 1.1l3.01-.2c.59 6.71-1.78 14.45 2.78 20.19 3.3 4.81 7.68 8.78 12.7 11.73 3.81.97 7.76.72 11.63.25.55 3.51.39 7.06-.03 10.58.26.47.76 1.4 1.02 1.87 4.4 2.56 8.66 5.37 12.9 8.18.22-17.55 0-35.12.09-52.68 10.97-.1 21.9-.81 32.88-.58.13 1.8.21 3.61.26 5.42a247.28 247.28 0 01-14.76 4.87c-2.96 1.34-5.79 2.93-8.57 4.59-2.19 2.62-2.83 6.01-2.9 9.33 1.59 8.31 7.8 14.9 15.41 18.23-1.19 2.69-2.49 5.34-3.86 7.94-1.74 3.28-3.45 6.56-5.17 9.85-.59 1.16-1.17 2.32-1.74 3.49 4.93-.27 9.83-.97 14.77-1.28 1.66-4.2 3.49-8.33 5.6-12.32.69 1.72 1.39 3.44 2.09 5.17.9 2.07 1.75 4.17 2.54 6.29 4.94.66 9.88 1.43 14.88 1.26a97 97 0 01-2.16-3.65c-2.41-5.02-4.99-9.95-7.46-14.94 5.06-.89 9.67-3.2 14.41-5.06-2.52-4.88-5.47-9.51-7.98-14.38-1.92 2.22-3.7 4.86-6.64 5.79-7.29 2.9-16.29 3.5-22.96-1.24-.54-2.35.03-4.44 2.22-5.64 3.37-1.31 6.77-2.53 10.21-3.63 4.18-1.27 8.3-2.76 12.26-4.62.48-.33 1.43-1 1.9-1.33.38-.45 1.14-1.35 1.51-1.8.12-3.92.1-7.84.09-11.77 3.34-.01 6.69-.01 10.04.01.07 6.85-.13 13.72.38 20.57-.65 7.62-.18 15.28-.43 22.92 1.8 1.4 3.69 2.68 5.63 3.9.97.73 1.95 1.46 2.93 2.21 1.72.89 3.46 1.76 5.23 2.58.15-17.4-.03-34.79.1-52.19 2.94-.02 5.89 0 8.84.12.11 4.44-.7 8.88-.26 13.32.85 10.29-1.32 20.65.46 30.89 4.45 2.66 8.79 5.5 13.02 8.51.22-17.61.01-35.22.09-52.83 1.21 0 2.42 0 3.64.01 5.92-.06 11.81-.93 17.74-.52 7.82.78 15.68.36 23.52.55-.04 1.28-.09 2.56-.12 3.84-5.3-.06-10.9.06-15.39 3.28-1.63-1.3-3.31-2.54-4.99-3.77-6.19-2.32-14.06-.17-17.76 5.43-2.49 3.83-1.97 8.58-1.56 12.9 4.58 10.88 11.92 20.61 20.94 28.21.95.07 1.91.14 2.87.23.77-1.21 2.6-2.25 1.92-3.91-1.37-5.92-6.84-9.4-9.36-14.71-2.5-4.31-3.16-9.36-2.78-14.25.57-.52 1.69-1.56 2.26-2.08l4.16-.15c.83 4.15.56 8.39.66 12.59 4.41 2.63 8.83 5.24 13.23 7.89.42-6.36-.55-12.82.75-19.1 1.27-.36 2.55-.74 3.82-1.14.34.23 1.01.69 1.34.92-.04 9.2.05 18.41 0 27.61 4.38 3 8.94 5.72 13.22 8.87.43-17.57-.3-35.15.65-52.71 4.55-.01 9.1-.01 13.66-.05 1.11.03 2.23.07 3.36.11.4 1.86.82 3.72 1.18 5.6-.41.55-1.22 1.65-1.63 2.2-3.68 1.17-7.52 1.6-11.36 1.44-.95 8.73 3.87 16.92 10.11 22.63 6.46 5.64 15.96 6.38 23.67 2.98 0 2.99.01 6 .03 9 4.45 2.89 8.89 5.82 13.37 8.68.03-3.05.09-6.1.05-9.16l.49-.6c-.05-6.04-.89-12.06-.24-18.09.78-8.23-.91-16.49.19-24.7 2.42-.04 4.84-.06 7.27-.12l-.11.15c.81-.03 2.42-.08 3.22-.11.08 3.32.07 6.66.61 9.95-1.98.71-3.93 1.46-5.86 2.28-.11 2.99-.96 6.41.99 9.02 3.47 4.87 8.64 9.75 15.11 9.07 2.18-1.95 2.44-4.86 2.94-7.56 2.61.13 5.24.19 7.86.28-.03 7.08-.25 14.17.16 21.24 4.55 2.58 8.85 5.57 13.14 8.57.86-17.59.5-35.19.62-52.8 3.13-.04 6.27-.07 9.4-.02 0-3.73-.02-7.45.04-11.17-35.51-.24-71.03-.01-106.55-.11-6.47-.56-12.96-.31-19.44-.45-3.42-3.35-6.61-6.96-10.29-10.03-8.92-7.33-19.32-14.49-31.34-14.47-6.88-.27-14.41 3.24-16.61 10.15-.53 4.77-.85 9.88 1.26 14.34-1.44.02-2.88.03-4.3.04-4.11-6.96-9.02-13.49-14.73-19.21-1.41-1.26-2.88-2.95-4.93-2.91-4.9-.21-9.76.69-14.64 1.04 1.02 4.83 2.42 9.57 3.69 14.34 4.35-.76 8.45-2.76 12.93-2.74 2.47 3.18 4.95 6.36 7.65 9.37-1.45.04-2.89.08-4.32.15-6-.01-12-.07-17.99.04-16.12 1.04-32.26-.23-48.39-.07-4.21-7.34-9.23-14.18-14.88-20.46-1.89-1.89-4.05-3.48-6.45-4.66-4.88 1.1-9.93.71-14.8 1.83z"/><path d="M83.45 130.92c4.11-4.16 10.33-4.1 15.69-3.16 7.17 1.45 12.96 6.42 17.54 11.88-10.79.41-21.55.09-32.34-.01-1.13-2.78-1.24-5.77-.89-8.71zm445.54-2.29c6.49-2.24 13.98-1.79 19.99 1.62 4.27 2.33 7.86 5.68 11.08 9.3-10.81.41-21.61.2-32.42.14-1.13-2.49-1.51-5.2-1.29-7.91.89-1.04 1.77-2.09 2.64-3.15zm-292.62 22.71c7.19.08 14.4.22 21.57-.5 5.88.45 11.78.59 17.69.57.01 1.43.03 2.85.05 4.27-6.63.15-13.27-.04-19.89.1-3.18.07-5.96 1.74-8.66 3.23-1.05 1.47-2.1 2.93-3.14 4.41-2.76.35-5.53.5-8.3.38.85-4.1.83-8.3.68-12.46zm382.79.04c3.74-.04 7.48 0 11.23.07-.04 6.6-.04 13.21-.01 19.81-3.92 1.89-7.73 4.69-12.29 4.41-3.18.22-6.1-1.13-8.81-2.59 1.54-.71 3.15-1.41 4.71-2.14 1.34-.98 2.68-1.96 4.03-2.95.35-.47 1.06-1.4 1.41-1.86 2.18-4.71 1.68-10.07-.27-14.75zm-207.02 7.59c-.4-2.53-.2-5.08.12-7.59 4.51-.04 9.01-.03 13.52-.01.01 5.91.18 11.82-.12 17.73-4.06 2.03-8.54 2.96-13.07 2.25-.52-4.11-.36-8.25-.45-12.38zm255.63-7.55c2.82-.06 5.64-.04 8.47.05.05 3.75.03 7.52-.65 11.22l-1.24-.96c-2.04.22-4.08.42-6.1.6-.48-3.62-.49-7.27-.48-10.91zM246.62 394.36c22.25-.14 44.51-.16 66.76.01-.07 10.41-.07 20.82.03 31.23-4.31.11-8.62.13-12.93.05-.16.57-.48 1.71-.65 2.28.66 9.24.31 18.51-.11 27.75 14.99.54 29.98.39 44.98.41.25-9.96.08-19.91.11-29.87-4.31-.84-8.71-.46-13.07-.54-.03-10.41-.04-20.81.02-31.21.52-.04 1.58-.13 2.11-.17 20.03-.06 40.05-.02 60.08-.03 1.49.01 2.98.01 4.48.03-.06 10.45-.12 20.9.02 31.36-4.4 0-8.8.04-13.2-.01-.75 30.61-.22 61.24-.36 91.86 4.49.03 8.99.01 13.49.04.01 11.02-.02 22.04.01 33.05-22.22.05-44.43-.03-66.64-.09-.05-10.99-.03-21.99-.01-32.98 4.54 0 9.08.06 13.62-.09.01-5.83-.93-11.63-.47-17.46.35-3.51.41-7.04.43-10.57-10.45-.15-20.89-.9-31.33-.41-4.75.39-9.52.17-14.27.34 1.01 7.88-.1 15.79.06 23.69-.01 1.47-.01 2.95-.01 4.43 4.53.1 9.06.07 13.59.1-.02 11.01-.01 22.01-.03 33.01-7.14-.18-14.24.79-21.38.55-9.98 0-19.96.01-29.95.01-5.1-.5-10.22-.53-15.35-.54.03-11.01.01-22.03 0-33.05 4.37-.01 8.75-.02 13.12.06.68-18.52.13-37.07.31-55.6.15-11.9-.5-23.81.05-35.7-4.5-.48-9.01-.65-13.53-.76.1-10.39.09-20.79.02-31.18zm165.78.15c29.21-.03 58.42-.01 87.63-.01 7.32-.66 14.38 1.71 21.07 4.4 1.39.62 2.8 1.21 4.22 1.8 8.75 4.54 16.56 11.71 19.87 21.2 2.6 7.34 3.59 15.3 2.85 23.05-.64 6.15-3.32 11.79-5.86 17.34l-.33.26c-3.84 6.4-8.84 12.03-14.69 16.66-5.01 3.33-10.44 5.95-16.07 8.03-7.56 1.99-15.39 1-23.07 1.9-7.49.15-14.98.14-22.46.34.06 9.39.04 18.78-.01 28.18 4.36.08 8.72.05 13.09.07 1.37 6.75-.27 13.54.3 20.32-.21 4.23-.43 8.49.26 12.7-17.72.49-35.46-.24-53.17.44-4.55.02-9.09-.01-13.64.02-.08-11.17-.1-22.35.02-33.52 4.4.01 8.8.03 13.21 0 .05-30.48.08-60.97-.02-91.45-4.43-.05-8.88.09-13.28-.45.1-10.43-.09-20.86.08-31.28m53.15 31.71c.06 10.47.09 20.95-.02 31.42 10.5.26 20.99.04 31.49.15 2.2.24 4.16-.79 6.06-1.75 2.93-2.48 5.6-5.3 7.31-8.78.42-4.81.46-9.72-1.05-14.36-2.35-2.2-4.79-4.29-7.42-6.13-1.96-.4-3.96-.67-5.96-.62-10.14.06-20.28-.03-30.41.07z"/></g><g fill="#010269"><path d="M.06 0H768v979H0V.06C.02.05.05.02.06 0M17.4 17.13c.02 314.76-.03 629.52.03 944.27 244.45 0 488.9-.02 733.35.01.2-99.13.03-198.27.09-297.41-.04-215.62.07-431.25-.06-646.87-244.47 0-488.94-.02-733.41 0z"/><path d="M327.07 313.93c39.8-8.34 81.4-7.98 121.01 1.26 39.3 9.03 76.43 26.98 108.2 51.76 28.4 22.28 52.55 50.01 70.48 81.36 27.05 47.03 39.84 102.21 35.99 156.33-46.24-2.38-93.19 5.2-135.92 23.2-35.17 14.97-66.99 38.28-90.46 68.58-26.16 33.32-41.74 73.95-49.02 115.43-2.45 13.07-3.74 26.31-5.24 39.5-1.08-23.58-5.23-47-11.5-69.74-10.73-38.86-30.2-75.71-58.64-104.52-25.89-26.52-58.75-45.7-93.77-57.44-23.62-8.03-48.29-12.76-73.13-14.87-12.81-.82-25.69-1.55-38.51-.52-1.02-21.79-.33-43.73 3.52-65.23 8.44-49.46 30.68-96.46 63.57-134.35 39.36-45.96 94.18-78.4 153.42-90.75M296.2 334.9c-48.07 16.76-91.02 47.8-122.16 88.05-28.36 36.17-46.76 79.86-53.49 125.29 15.21.92 30.41 2.47 45.41 5.21 38.32 6.7 75.69 20.62 107.74 42.89 33 22.82 60.22 53.85 78.73 89.44 17.3 32.99 26.72 69.76 29.57 106.81 7.76-51.49 24.08-102.87 55.26-145.16 22.57-31.03 53.35-55.9 88.27-71.75 38.56-17.87 81.25-25.02 123.49-26.08-4.68-33.9-16.05-66.83-33.19-96.44-18.29-31.69-43.25-59.48-72.66-81.24-35.97-26.62-78.77-44.03-123.18-49.72-16.55-2.45-33.32-2.36-50-1.92-25.13 1.26-50.07 6.26-73.79 14.62z"/><path d="M619.93 615.95c13.89-1.36 27.84-1.45 41.77-1.09-.22 9.09-2.15 18.05-3.8 26.97-13.3 67.42-53.05 129.05-108.6 169.42-14.49 10.79-30.2 19.86-46.47 27.67-34.59 16.05-72.44 25.11-110.58 26 1.83-41.58 9.45-83.5 27.44-121.28 16-33.98 41-63.8 72.24-84.74 37.74-25.68 82.84-38.91 128-42.95m-117.78 83.92c-19.5 10.65-36.67 25.36-50.55 42.68-25.28 31.67-39.78 70.58-47.89 109.94 37.28-2.61 74.01-13.1 106.91-30.85 56.55-30.1 101.5-81.31 123.94-141.33-44.65-6.51-92.34-2.51-132.41 19.56zm-394.76-85.22c42.9-1.68 86.34 5.45 125.99 22.08 34.71 14.72 66.1 37.96 88.68 68.31 23.82 31.42 37.88 69.3 44.89 107.85 3.09 17.15 4.87 34.51 5.64 51.9-41.59-1.76-82.78-12.95-119.43-32.73-32.03-17.08-60.58-40.62-83.66-68.62-34.8-42.02-56.66-94.51-62.11-148.79m27.56 65.37c19.71 53.75 57.87 100.34 106.04 131.15 34.95 22.4 75.23 36.58 116.58 40.55-1.99-26.57-7.18-53.35-19.12-77.35-9.08-18.44-22.67-34.36-38.45-47.4-13.94-11.36-28.25-22.5-44.26-30.83-18.17-9.68-38.26-15.74-58.75-17.77-20.65-2.55-41.48-.75-62.04 1.65z"/></g><g fill="#fdfdfd"><path d="M17.4 17.13c244.47-.02 488.94 0 733.41 0 .13 215.62.02 431.25.06 646.87-.06 99.14.11 198.28-.09 297.41-244.45-.03-488.9-.01-733.35-.01-.06-314.75-.01-629.51-.03-944.27m26.04 216.26c127.52.05 255.04.16 382.56.35 19.66.11 39.33-.3 58.98.37 50.35-.04 100.7.06 151.06.04 8.33-.09 16.67.33 24.99-.41 9.65 1.14 19.33-.39 28.99.33 5.65-.58 11.31.54 16.96-.13 6.1-.59 12.24.93 18.3-.39.05-4.91-.73-9.79-.52-14.7.82-10.93.28-21.9.44-32.85-.06-19.65.1-39.31-.08-58.96-1.07-6.45.74-12.95-.56-19.36-5.86.64-11.75.61-17.61.16-11.64.05-23.29-.27-34.92.25-8.74-.68-17.49.13-26.23-.28-3.93-.08-7.85.61-11.77.18-9.33-.44-18.68-.11-28 .17-6.32-.81-12.65.4-18.97-.25-8.07-.52-16.13.57-24.18-.04-6.31.34-12.63.51-18.94.04-17.96.62-35.95-.74-53.92.27-6.67.34-13.33-.76-19.99-.09-4 .29-7.99-.36-11.98-.29-7.36-.16-14.71.82-22.06.22-4.7-.44-9.42-.09-14.12.09-6.96-.41-13.94-.37-20.9-.2-6.27.61-12.54-.58-18.81.18-6.71-.56-13.42.48-20.14-.07-8.65-.68-17.31.51-25.97-.21-10.99.92-22.01-.67-33.01.32-6.74-.61-13.47.09-20.2-.04-7.62-.87-15.24.64-22.85-.22-10.67-.11-21.34-.03-32-.02-2.33.23-4.66.34-7 .37-11.32-.39-22.64-.42-33.97-.39-10.32.81-20.64-.36-30.97-.03-12.38.45-24.73-.1-37.11.34-8.97-.54-17.98-.49-26.96-.01-16.14-.69-32.31-.13-48.46-.35-.22 41.87-.06 83.74-.08 125.61m283.63 80.54c-59.24 12.35-114.06 44.79-153.42 90.75-32.89 37.89-55.13 84.89-63.57 134.35-3.85 21.5-4.54 43.44-3.52 65.23 12.82-1.03 25.7-.3 38.51.52 24.84 2.11 49.51 6.84 73.13 14.87 35.02 11.74 67.88 30.92 93.77 57.44 28.44 28.81 47.91 65.66 58.64 104.52 6.27 22.74 10.42 46.16 11.5 69.74 1.5-13.19 2.79-26.43 5.24-39.5 7.28-41.48 22.86-82.11 49.02-115.43 23.47-30.3 55.29-53.61 90.46-68.58 42.73-18 89.68-25.58 135.92-23.2 3.85-54.12-8.94-109.3-35.99-156.33-17.93-31.35-42.08-59.08-70.48-81.36-31.77-24.78-68.9-42.73-108.2-51.76-39.61-9.24-81.21-9.6-121.01-1.26m292.86 302.02c-45.16 4.04-90.26 17.27-128 42.95-31.24 20.94-56.24 50.76-72.24 84.74-17.99 37.78-25.61 79.7-27.44 121.28 38.14-.89 75.99-9.95 110.58-26 16.27-7.81 31.98-16.88 46.47-27.67 55.55-40.37 95.3-102 108.6-169.42 1.65-8.92 3.58-17.88 3.8-26.97-13.93-.36-27.88-.27-41.77 1.09m-512.54-1.3c5.45 54.28 27.31 106.77 62.11 148.79 23.08 28 51.63 51.54 83.66 68.62 36.65 19.78 77.84 30.97 119.43 32.73-.77-17.39-2.55-34.75-5.64-51.9-7.01-38.55-21.07-76.43-44.89-107.85-22.58-30.35-53.97-53.59-88.68-68.31-39.65-16.63-83.09-23.76-125.99-22.08z"/><path d="M75.31 120.29c3.4-3.88 8.7-5.18 13.68-5.13 5.22.02 10.25 1.46 15 3.53 6.53 3.27 12.36 7.69 17.93 12.37 2.84 2.71 5.69 5.43 8.12 8.52 5.99.21 11.99-.05 17.96.52 73.29.02 146.59.01 219.88.01 0 3.74-.01 7.49-.05 11.24-3.15-.02-6.3-.01-9.44.04-.04 17.59.07 35.18-.06 52.77-4.35-2.7-8.5-5.74-12.94-8.29-1.61-6.83-.43-13.96-.75-20.92-.04-1.08-.07-2.15-.1-3.23-2.78.02-5.56.01-8.34.01-.29 3.21.09 6.7-1.72 9.55-.68.31-2.05.93-2.73 1.24-3.17-.32-5.78-2.1-8.01-4.24-3.73-4.42-7.98-9.46-7.37-15.64 1.56-1.39 3.23-3.08 5.51-2.96 7.58-.14 15.17-.03 22.75-.02-.01-2.76-.01-5.51-.02-8.26-11.1.3-22.15-.67-33.24-.57-1.06 17.77.6 35.61-.73 53.37-4.19-3.28-8.72-6.08-13.21-8.91-.1-14.62-.04-29.23-.02-43.85-2.69-.04-5.36-.05-8.04-.03-.03 13.57-.05 27.14-.03 40.72-.03 3.96.23 7.96-.59 11.88-4.24-3.16-8.78-5.9-13.15-8.87.05-9.12.09-18.23-.06-27.35-6.57.7-13.19-.01-19.75.79-2.21 4.92-.04 10.17 2.47 14.51 2.11 3.51 4.5 6.86 7.17 9.97.63 2.18 1.1 4.4 1.44 6.65-1.25.85-2.48 1.72-3.7 2.6-.31.07-.95.21-1.26.28-6.81-8.43-13.89-16.91-18.02-27.05-3.17-.57-6.31-1.31-9.24-2.66-1.04-.59-2.18-.44-3.28-.18-1.38 1.47-2.87 2.83-4.37 4.16 6.46 7.33 12.69 15.17 21.35 20.05-3.19 1.6-6.34 3.26-9.52 4.87-7.54-7.36-14.81-15.08-20.89-23.71-3.37-4.34-5.92-9.72-4.42-15.32 2.53-1.55 5.37-2.41 8.35-2.36 0-3 .01-6-.01-9-6.49-.03-12.97-.02-19.46-.01.01 4.67.01 9.34-.01 14.02-7.54.03-15.07-.02-22.61.02-.57.37-1.72 1.1-2.3 1.46-.86 3.01-1.33 6.13-1.04 9.26 3.68 1.98 7.81 2.62 11.96 2.54.56-3.97 1.72-8.83 6.02-10.26 2.96-1.54 6.09-.04 8.85 1.16 2.32 3.03 3.86 6.62 3.09 10.5-.42 1.05-.82 2.1-1.2 3.17-.83 1.07-1.66 2.14-2.5 3.2 3.28 3.53 6.35 7.25 9.72 10.69-.02.51-.05 1.52-.07 2.02.73 1.23 1.44 2.46 2.17 3.69 1.1 6.13-.73 12.95-6.13 16.53-9.69 6.49-22.28 4.55-32.35.01-6.29-3.55-13.46-6.61-17.35-13.07l-.06-2.48c2.29-1.77 4.59-3.54 6.79-5.44 1.02 2.58 1.17 5.98 3.92 7.41 8.49 5.68 19.79 7.84 29.5 4.28.95-.93 1.9-1.85 2.87-2.75.1-1.35.19-2.7.27-4.04-1.01 0-3.03.02-4.04.03-1.23.98-2.47 1.97-3.7 2.96-2.41.53-4.79 1.18-7.2 1.7-2.1-2.77-4.29-5.49-6.14-8.43-.27-.04-.81-.1-1.08-.14 5.34-3.32 11.3-5.76 17.65-6.05-.53-.69-1.59-2.08-2.13-2.77-5.43.31-11.09.68-16.21-1.53-3.47-2.16-7.03-4.41-9.4-7.83-2.22-2.72-2.88-6.24-4.37-9.33-1.65-.21-3.31-.2-4.96-.27-.08 3.19-.32 6.39-1.05 9.5-2.51.55-5.33 1.99-7.66.16-4.9-3.51-8.81-8.55-10.86-14.24-.73-1.88.17-3.83.51-5.68 1.78-.83 3.6-1.8 5.62-1.74 7.4-.17 14.82.24 22.22-.22.13-.65.38-1.95.51-2.6 2.2-1.48 4.36-3.51 7.19-3.46 3.76-.18 7.53-.07 11.3-.06.58-.4 1.73-1.21 2.31-1.61-13.45-.92-26.93-.95-40.4-.77-5.49.66-11.03.43-16.54.48.02 4.09.01 8.18.02 12.27-8.94.3-17.91-.1-26.82.47 7.66 2.23 16.02-.7 23.45 2.43 3.53 3.08 8.68 6 8.55 11.34.62 5.37-3.45 9.57-7.26 12.71-2 1.72-4.68 2.11-7.22 2.26-1.96-2.49-4.02-4.9-6.07-7.32.22-.86.46-1.72.71-2.57 1.56-4.42 6.86-3.48 10.02-6.01-4.93-1.59-10.09-1.21-15.09-.26-1.08.92-2.15 1.85-3.21 2.79.01 1.6.02 3.2.02 4.81 3.01 5.7 8.79 8.93 14.38 11.63.85 1.51 1.73 3 2.71 4.44.17 1.98-1.24 3.79-3.15 4.19-2.36-.31-4.36-1.83-6.48-2.81-7.68-3.88-15.06-8.76-20.11-15.89-.9-2.53-1.95-5.12-1.74-7.86-.05-3.63 2.64-6.39 4.72-9.07-.54-.86-1.08-1.73-1.61-2.6l-.72.14c-.77-2.09-1.88-4.12-2.08-6.37.13-2.94 1.6-5.91 4.11-7.52 7-1.85 14.45.46 21.45-1.38-10.83-.67-21.72-.25-32.57-.36-.06 17.72.1 35.44-.09 53.15-2.8-1.67-5.55-3.42-8.31-5.17-2.01-1.63-5.55-2.59-5.32-5.76-.04-13.91.09-27.82-.08-41.73-2.35-.02-4.69-.01-7.03.01-.04-3.88-.01-7.76.03-11.64 1.6-.05 3.19-.09 4.79-.13-3.11-5.99-3.31-14.32 1.8-19.3m8.14 10.63c-.35 2.94-.24 5.93.89 8.71 10.79.1 21.55.42 32.34.01-4.58-5.46-10.37-10.43-17.54-11.88-5.36-.94-11.58-1-15.69 3.16m152.92 20.42c.15 4.16.17 8.36-.68 12.46 2.77.12 5.54-.03 8.3-.38 1.04-1.48 2.09-2.94 3.14-4.41 2.7-1.49 5.48-3.16 8.66-3.23 6.62-.14 13.26.05 19.89-.1-.02-1.42-.04-2.84-.05-4.27-5.91.02-11.81-.12-17.69-.57-7.17.72-14.38.58-21.57.5zm159.12-34.94c4.87-1.12 9.92-.73 14.8-1.83 2.4 1.18 4.56 2.77 6.45 4.66 5.65 6.28 10.67 13.12 14.88 20.46 16.13-.16 32.27 1.11 48.39.07 5.99-.11 11.99-.05 17.99-.04 1.43-.07 2.87-.11 4.32-.15-2.7-3.01-5.18-6.19-7.65-9.37-4.48-.02-8.58 1.98-12.93 2.74-1.27-4.77-2.67-9.51-3.69-14.34 4.88-.35 9.74-1.25 14.64-1.04 2.05-.04 3.52 1.65 4.93 2.91 5.71 5.72 10.62 12.25 14.73 19.21 1.42-.01 2.86-.02 4.3-.04-2.11-4.46-1.79-9.57-1.26-14.34 2.2-6.91 9.73-10.42 16.61-10.15 12.02-.02 22.42 7.14 31.34 14.47 3.68 3.07 6.87 6.68 10.29 10.03 6.48.14 12.97-.11 19.44.45 35.52.1 71.04-.13 106.55.11-.06 3.72-.04 7.44-.04 11.17-3.13-.05-6.27-.02-9.4.02-.12 17.61.24 35.21-.62 52.8-4.29-3-8.59-5.99-13.14-8.57-.41-7.07-.19-14.16-.16-21.24-2.62-.09-5.25-.15-7.86-.28-.5 2.7-.76 5.61-2.94 7.56-6.47.68-11.64-4.2-15.11-9.07-1.95-2.61-1.1-6.03-.99-9.02 1.93-.82 3.88-1.57 5.86-2.28-.54-3.29-.53-6.63-.61-9.95-.8.03-2.41.08-3.22.11l.11-.15c-2.43.06-4.85.08-7.27.12-1.1 8.21.59 16.47-.19 24.7-.65 6.03.19 12.05.24 18.09l-.49.6c.04 3.06-.02 6.11-.05 9.16-4.48-2.86-8.92-5.79-13.37-8.68-.02-3-.03-6.01-.03-9-7.71 3.4-17.21 2.66-23.67-2.98-6.24-5.71-11.06-13.9-10.11-22.63 3.84.16 7.68-.27 11.36-1.44.41-.55 1.22-1.65 1.63-2.2-.36-1.88-.78-3.74-1.18-5.6-1.13-.04-2.25-.08-3.36-.11-4.56.04-9.11.04-13.66.05-.95 17.56-.22 35.14-.65 52.71-4.28-3.15-8.84-5.87-13.22-8.87.05-9.2-.04-18.41 0-27.61-.33-.23-1-.69-1.34-.92-1.27.4-2.55.78-3.82 1.14-1.3 6.28-.33 12.74-.75 19.1-4.4-2.65-8.82-5.26-13.23-7.89-.1-4.2.17-8.44-.66-12.59l-4.16.15c-.57.52-1.69 1.56-2.26 2.08-.38 4.89.28 9.94 2.78 14.25 2.52 5.31 7.99 8.79 9.36 14.71.68 1.66-1.15 2.7-1.92 3.91-.96-.09-1.92-.16-2.87-.23-9.02-7.6-16.36-17.33-20.94-28.21-.41-4.32-.93-9.07 1.56-12.9 3.7-5.6 11.57-7.75 17.76-5.43 1.68 1.23 3.36 2.47 4.99 3.77 4.49-3.22 10.09-3.34 15.39-3.28.03-1.28.08-2.56.12-3.84-7.84-.19-15.7.23-23.52-.55-5.93-.41-11.82.46-17.74.52-1.22-.01-2.43-.01-3.64-.01-.08 17.61.13 35.22-.09 52.83a195.19 195.19 0 00-13.02-8.51c-1.78-10.24.39-20.6-.46-30.89-.44-4.44.37-8.88.26-13.32-2.95-.12-5.9-.14-8.84-.12-.13 17.4.05 34.79-.1 52.19-1.77-.82-3.51-1.69-5.23-2.58-.98-.75-1.96-1.48-2.93-2.21-1.94-1.22-3.83-2.5-5.63-3.9.25-7.64-.22-15.3.43-22.92-.51-6.85-.31-13.72-.38-20.57-3.35-.02-6.7-.02-10.04-.01.01 3.93.03 7.85-.09 11.77-.37.45-1.13 1.35-1.51 1.8-.47.33-1.42 1-1.9 1.33-3.96 1.86-8.08 3.35-12.26 4.62-3.44 1.1-6.84 2.32-10.21 3.63-2.19 1.2-2.76 3.29-2.22 5.64 6.67 4.74 15.67 4.14 22.96 1.24 2.94-.93 4.72-3.57 6.64-5.79 2.51 4.87 5.46 9.5 7.98 14.38-4.74 1.86-9.35 4.17-14.41 5.06 2.47 4.99 5.05 9.92 7.46 14.94a97 97 0 002.16 3.65c-5 .17-9.94-.6-14.88-1.26-.79-2.12-1.64-4.22-2.54-6.29-.7-1.73-1.4-3.45-2.09-5.17-2.11 3.99-3.94 8.12-5.6 12.32-4.94.31-9.84 1.01-14.77 1.28.57-1.17 1.15-2.33 1.74-3.49 1.72-3.29 3.43-6.57 5.17-9.85 1.37-2.6 2.67-5.25 3.86-7.94-7.61-3.33-13.82-9.92-15.41-18.23.07-3.32.71-6.71 2.9-9.33 2.78-1.66 5.61-3.25 8.57-4.59 4.97-1.46 9.89-3.1 14.76-4.87-.05-1.81-.13-3.62-.26-5.42-10.98-.23-21.91.48-32.88.58-.09 17.56.13 35.13-.09 52.68-4.24-2.81-8.5-5.62-12.9-8.18-.26-.47-.76-1.4-1.02-1.87.42-3.52.58-7.07.03-10.58-3.87.47-7.82.72-11.63-.25-5.02-2.95-9.4-6.92-12.7-11.73-4.56-5.74-2.19-13.48-2.78-20.19l-3.01.2c-.94-.36-1.87-.73-2.79-1.1.01-3.36.02-6.72-.02-10.08 8.94-.26 17.88-.17 26.82-.65.62-.03 1.85-.07 2.47-.1-3.51-3.91-6.66-8.11-10.1-12.07-2.03.41-4.06.88-6.08 1.34-2.09.72-4.21 1.34-6.33 1.96-.87-2.94-1.72-5.89-2.45-8.87-.57-1.83-1.11-3.68-1.66-5.51m133.5 12.23c-.87 1.06-1.75 2.11-2.64 3.15-.22 2.71.16 5.42 1.29 7.91 10.81.06 21.61.27 32.42-.14-3.22-3.62-6.81-6.97-11.08-9.3-6.01-3.41-13.5-3.86-19.99-1.62m90.17 22.75c1.95 4.68 2.45 10.04.27 14.75-.35.46-1.06 1.39-1.41 1.86-1.35.99-2.69 1.97-4.03 2.95-1.56.73-3.17 1.43-4.71 2.14 2.71 1.46 5.63 2.81 8.81 2.59 4.56.28 8.37-2.52 12.29-4.41-.03-6.6-.03-13.21.01-19.81-3.75-.07-7.49-.11-11.23-.07m-207.02 7.59c.09 4.13-.07 8.27.45 12.38 4.53.71 9.01-.22 13.07-2.25.3-5.91.13-11.82.12-17.73-4.51-.02-9.01-.03-13.52.01-.32 2.51-.52 5.06-.12 7.59m255.63-7.55c-.01 3.64 0 7.29.48 10.91 2.02-.18 4.06-.38 6.1-.6l1.24.96c.68-3.7.7-7.47.65-11.22-2.83-.09-5.65-.11-8.47-.05zM296.2 334.9c23.72-8.36 48.66-13.36 73.79-14.62 16.68-.44 33.45-.53 50 1.92 44.41 5.69 87.21 23.1 123.18 49.72 29.41 21.76 54.37 49.55 72.66 81.24 17.14 29.61 28.51 62.54 33.19 96.44-42.24 1.06-84.93 8.21-123.49 26.08-34.92 15.85-65.7 40.72-88.27 71.75-31.18 42.29-47.5 93.67-55.26 145.16-2.85-37.05-12.27-73.82-29.57-106.81-18.51-35.59-45.73-66.62-78.73-89.44-32.05-22.27-69.42-36.19-107.74-42.89-15-2.74-30.2-4.29-45.41-5.21 6.73-45.43 25.13-89.12 53.49-125.29 31.14-40.25 74.09-71.29 122.16-88.05m-49.58 59.46c.07 10.39.08 20.79-.02 31.18 4.52.11 9.03.28 13.53.76-.55 11.89.1 23.8-.05 35.7-.18 18.53.37 37.08-.31 55.6-4.37-.08-8.75-.07-13.12-.06.01 11.02.03 22.04 0 33.05 5.13.01 10.25.04 15.35.54 9.99 0 19.97-.01 29.95-.01 7.14.24 14.24-.73 21.38-.55.02-11 .01-22 .03-33.01-4.53-.03-9.06 0-13.59-.1 0-1.48 0-2.96.01-4.43-.16-7.9.95-15.81-.06-23.69 4.75-.17 9.52.05 14.27-.34 10.44-.49 20.88.26 31.33.41-.02 3.53-.08 7.06-.43 10.57-.46 5.83.48 11.63.47 17.46-4.54.15-9.08.09-13.62.09-.02 10.99-.04 21.99.01 32.98 22.21.06 44.42.14 66.64.09-.03-11.01 0-22.03-.01-33.05-4.5-.03-9-.01-13.49-.04.14-30.62-.39-61.25.36-91.86 4.4.05 8.8.01 13.2.01-.14-10.46-.08-20.91-.02-31.36-1.5-.02-2.99-.02-4.48-.03-20.03.01-40.05-.03-60.08.03-.53.04-1.59.13-2.11.17-.06 10.4-.05 20.8-.02 31.21 4.36.08 8.76-.3 13.07.54-.03 9.96.14 19.91-.11 29.87-15-.02-29.99.13-44.98-.41.42-9.24.77-18.51.11-27.75.17-.57.49-1.71.65-2.28 4.31.08 8.62.06 12.93-.05-.1-10.41-.1-20.82-.03-31.23-22.25-.17-44.51-.15-66.76-.01m165.78.15c-.17 10.42.02 20.85-.08 31.28 4.4.54 8.85.4 13.28.45.1 30.48.07 60.97.02 91.45-4.41.03-8.81.01-13.21 0-.12 11.17-.1 22.35-.02 33.52 4.55-.03 9.09 0 13.64-.02 17.71-.68 35.45.05 53.17-.44-.69-4.21-.47-8.47-.26-12.7-.57-6.78 1.07-13.57-.3-20.32-4.37-.02-8.73.01-13.09-.07.05-9.4.07-18.79.01-28.18 7.48-.2 14.97-.19 22.46-.34 7.68-.9 15.51.09 23.07-1.9 5.63-2.08 11.06-4.7 16.07-8.03 5.85-4.63 10.85-10.26 14.69-16.66l.33-.26c2.54-5.55 5.22-11.19 5.86-17.34.74-7.75-.25-15.71-2.85-23.05-3.31-9.49-11.12-16.66-19.87-21.2-1.42-.59-2.83-1.18-4.22-1.8-6.69-2.69-13.75-5.06-21.07-4.4-29.21 0-58.42-.02-87.63.01z"/><path d="M465.55 426.22c10.13-.1 20.27-.01 30.41-.07 2-.05 4 .22 5.96.62 2.63 1.84 5.07 3.93 7.42 6.13 1.51 4.64 1.47 9.55 1.05 14.36-1.71 3.48-4.38 6.3-7.31 8.78-1.9.96-3.86 1.99-6.06 1.75-10.5-.11-20.99.11-31.49-.15.11-10.47.08-20.95.02-31.42zm-330.6 253.8c20.56-2.4 41.39-4.2 62.04-1.65 20.49 2.03 40.58 8.09 58.75 17.77 16.01 8.33 30.32 19.47 44.26 30.83 15.78 13.04 29.37 28.96 38.45 47.4 11.94 24 17.13 50.78 19.12 77.35-41.35-3.97-81.63-18.15-116.58-40.55-48.17-30.81-86.33-77.4-106.04-131.15zm367.2 19.85c40.07-22.07 87.76-26.07 132.41-19.56-22.44 60.02-67.39 111.23-123.94 141.33-32.9 17.75-69.63 28.24-106.91 30.85 8.11-39.36 22.61-78.27 47.89-109.94 13.88-17.32 31.05-32.03 50.55-42.68z"/></g></svg>