<?xml version="1.0" encoding="utf-8"?>
<!-- Generator: Adobe Illustrator 24.0.2, SVG Export Plug-In . SVG Version: 6.00 Build 0)  -->
<svg version="1.0" id="Layer_1" xmlns="http://www.w3.org/2000/svg" xmlns:xlink="http://www.w3.org/1999/xlink" x="0px" y="0px"
	 viewBox="0 0 300 280" enable-background="new 0 0 300 280" xml:space="preserve">
<g>
	<path fill-rule="evenodd" clip-rule="evenodd" fill="#007F3E" d="M41.95,146.07h20.21l13.52-28.83l5.35,29.27h6.39l26.9-28.09
		l-8.47,28.09h20.36l1.84-7.57c-8.99-9.74-6.48-20.07,7.52-31l1.49-6.16l-21.25-0.15l-23.33,23.92l-4.61-23.78h-21.1L41.95,146.07
		L41.95,146.07z"/>
	<path fill-rule="evenodd" clip-rule="evenodd" fill="#007F3E" d="M178.08,146.51l4.76-9.36c-51.42,9.28-40.65-35.63,12.78-24.96
		l5.94-9.66c-14.45-1.98-28.27-2.31-41.35-0.34c-10.35,1.56-19.72,3.88-27.37,11.47c-15.58,15.45,0.92,33.78,23.77,33.94
		C163.77,147.64,170.92,147.52,178.08,146.51L178.08,146.51z"/>
	<path fill-rule="evenodd" clip-rule="evenodd" fill="#007F3E" d="M195.56,122.01l23.87-2.82c0.25-3.71,2.62-6.42,8.01-6.97h26.83
		l4-10.38L221.06,102c-9.72,0.04-16.68,3.48-19.57,8.9L195.56,122.01L195.56,122.01z M182.81,145.88h22.68l6.82-15.27l22.39,0.15
		l4.15-10.67c-18.59-0.13-35.59,1.14-47.44,10.53L182.81,145.88L182.81,145.88z"/>
	<path fill="#808285" d="M42.29,163.12v-10.1h4.53l2.71,6.89l2.68-6.89h4.54v10.1h-2.81v-7.95l-2.97,7.95h-2.91l-2.96-7.95v7.95
		H42.29L42.29,163.12z M61.88,158.03l-2.6-0.32c0.29-0.71,0.8-1.23,1.51-1.57c0.72-0.34,1.78-0.51,3.19-0.51
		c1.28,0,2.23,0.1,2.86,0.31c0.62,0.2,1.07,0.46,1.32,0.78c0.25,0.32,0.38,0.89,0.38,1.73l-0.03,2.26c0,0.64,0.05,1.12,0.14,1.42
		c0.09,0.3,0.27,0.63,0.52,0.98h-2.84c-0.07-0.13-0.17-0.32-0.28-0.57c-0.05-0.11-0.08-0.19-0.1-0.23
		c-0.49,0.32-1.01,0.56-1.57,0.72c-0.56,0.16-1.15,0.24-1.79,0.24c-1.12,0-2-0.2-2.64-0.61c-0.65-0.41-0.97-0.93-0.97-1.55
		c0-0.41,0.15-0.78,0.44-1.11c0.29-0.32,0.7-0.57,1.23-0.74c0.53-0.17,1.29-0.32,2.28-0.45c1.34-0.17,2.27-0.33,2.79-0.48v-0.19
		c0-0.37-0.14-0.64-0.41-0.8c-0.27-0.16-0.78-0.24-1.54-0.24c-0.51,0-0.91,0.07-1.2,0.2C62.29,157.45,62.06,157.69,61.88,158.03
		L61.88,158.03z M65.72,159.6c-0.37,0.08-0.95,0.18-1.75,0.3c-0.79,0.11-1.31,0.23-1.56,0.34c-0.37,0.18-0.56,0.41-0.56,0.68
		c0,0.27,0.15,0.51,0.45,0.7c0.3,0.2,0.68,0.3,1.14,0.3c0.52,0,1.01-0.12,1.48-0.34c0.35-0.17,0.58-0.39,0.68-0.64
		c0.08-0.16,0.11-0.48,0.11-0.94V159.6L65.72,159.6z M81.23,163.12h-2.87v-3.73c0-0.79-0.06-1.3-0.18-1.53
		c-0.12-0.23-0.33-0.41-0.6-0.54c-0.28-0.13-0.61-0.19-0.99-0.19c-0.5,0-0.95,0.09-1.34,0.27c-0.39,0.19-0.67,0.43-0.81,0.73
		c-0.15,0.3-0.22,0.86-0.22,1.68v3.31h-2.87v-7.31h2.66v1.07c0.95-0.83,2.14-1.24,3.58-1.24c0.63,0,1.21,0.08,1.74,0.23
		c0.52,0.16,0.92,0.35,1.19,0.59c0.27,0.24,0.46,0.51,0.56,0.81c0.11,0.3,0.16,0.74,0.16,1.3V163.12L81.23,163.12z M83.88,163.6
		l3.28,0.27c0.06,0.26,0.18,0.44,0.38,0.53c0.27,0.14,0.7,0.21,1.29,0.21c0.75,0,1.31-0.07,1.69-0.23c0.25-0.1,0.44-0.26,0.57-0.49
		c0.09-0.16,0.13-0.46,0.13-0.89v-1.07c-0.86,0.79-1.94,1.18-3.25,1.18c-1.46,0-2.61-0.42-3.46-1.25c-0.67-0.66-1-1.47-1-2.45
		c0-1.23,0.44-2.16,1.31-2.81c0.88-0.65,1.96-0.97,3.26-0.97c1.34,0,2.45,0.4,3.32,1.19v-1.02h2.68v6.56c0,0.86-0.11,1.51-0.32,1.94
		c-0.21,0.43-0.5,0.76-0.89,1.01c-0.38,0.24-0.89,0.43-1.53,0.57c-0.64,0.14-1.44,0.21-2.42,0.21c-1.84,0-3.14-0.21-3.91-0.64
		c-0.77-0.43-1.15-0.96-1.15-1.62C83.87,163.77,83.87,163.69,83.88,163.6L83.88,163.6z M86.44,159.31c0,0.78,0.22,1.35,0.67,1.7
		c0.45,0.36,0.99,0.54,1.65,0.54c0.7,0,1.29-0.19,1.78-0.56c0.48-0.37,0.73-0.92,0.73-1.64c0-0.76-0.23-1.32-0.7-1.69
		c-0.46-0.37-1.05-0.55-1.75-0.55c-0.69,0-1.26,0.18-1.7,0.54C86.67,158.02,86.44,158.57,86.44,159.31L86.44,159.31z M99.07,158.03
		l-2.6-0.32c0.29-0.71,0.79-1.23,1.51-1.57c0.72-0.34,1.78-0.51,3.19-0.51c1.28,0,2.23,0.1,2.86,0.31c0.62,0.2,1.07,0.46,1.32,0.78
		c0.25,0.32,0.38,0.89,0.38,1.73l-0.03,2.26c0,0.64,0.04,1.12,0.14,1.42c0.09,0.3,0.27,0.63,0.52,0.98h-2.84
		c-0.07-0.13-0.17-0.32-0.28-0.57c-0.05-0.11-0.08-0.19-0.1-0.23c-0.49,0.32-1.01,0.56-1.57,0.72c-0.56,0.16-1.15,0.24-1.79,0.24
		c-1.12,0-2-0.2-2.64-0.61c-0.64-0.41-0.97-0.93-0.97-1.55c0-0.41,0.15-0.78,0.44-1.11c0.29-0.32,0.7-0.57,1.23-0.74
		c0.53-0.17,1.29-0.32,2.28-0.45c1.34-0.17,2.27-0.33,2.79-0.48v-0.19c0-0.37-0.14-0.64-0.41-0.8c-0.27-0.16-0.78-0.24-1.54-0.24
		c-0.51,0-0.91,0.07-1.2,0.2C99.48,157.45,99.25,157.69,99.07,158.03L99.07,158.03z M102.91,159.6c-0.37,0.08-0.95,0.18-1.75,0.3
		c-0.79,0.11-1.31,0.23-1.56,0.34c-0.37,0.18-0.56,0.41-0.56,0.68c0,0.27,0.15,0.51,0.45,0.7c0.3,0.2,0.68,0.3,1.14,0.3
		c0.52,0,1.01-0.12,1.48-0.34c0.35-0.17,0.57-0.39,0.68-0.64c0.08-0.16,0.11-0.48,0.11-0.94V159.6L102.91,159.6z M108.56,163.12
		v-10.1h2.87v10.1H108.56L108.56,163.12z M113.7,159.35c0-0.64,0.24-1.27,0.7-1.87c0.47-0.6,1.14-1.06,2-1.38
		c0.86-0.32,1.82-0.48,2.89-0.48c1.64,0,2.98,0.36,4.03,1.08c1.05,0.72,1.57,1.63,1.57,2.73c0,1.1-0.53,2.02-1.59,2.75
		c-1.06,0.73-2.39,1.09-4,1.09c-1,0-1.94-0.15-2.84-0.45c-0.9-0.3-1.59-0.75-2.06-1.33C113.94,160.91,113.7,160.19,113.7,159.35
		L113.7,159.35z M116.65,159.46c0,0.73,0.25,1.28,0.77,1.67c0.51,0.39,1.14,0.58,1.89,0.58c0.75,0,1.38-0.19,1.88-0.58
		c0.51-0.39,0.76-0.94,0.76-1.68c0-0.71-0.25-1.27-0.76-1.65c-0.51-0.39-1.13-0.58-1.88-0.58c-0.75,0-1.38,0.19-1.89,0.58
		C116.9,158.18,116.65,158.73,116.65,159.46L116.65,159.46z M129.89,163.12h-2.87v-7.31h2.66v1.04c0.46-0.49,0.87-0.82,1.23-0.97
		c0.37-0.15,0.78-0.24,1.24-0.24c0.66,0,1.28,0.12,1.89,0.37l-0.89,1.69c-0.48-0.21-0.93-0.31-1.35-0.31c-0.4,0-0.74,0.07-1.02,0.22
		c-0.28,0.15-0.5,0.42-0.66,0.81c-0.16,0.39-0.24,1.21-0.24,2.45V163.12L129.89,163.12z M141.56,160.79l2.86,0.32
		c-0.37,0.71-0.95,1.25-1.74,1.62c-0.79,0.37-1.78,0.55-2.98,0.55c-1.89,0-3.28-0.41-4.19-1.25c-0.71-0.67-1.07-1.51-1.07-2.52
		c0-1.21,0.47-2.16,1.41-2.85c0.94-0.69,2.13-1.03,3.56-1.03c1.61,0,2.89,0.36,3.82,1.08c0.93,0.72,1.38,1.82,1.34,3.3h-7.19
		c0.02,0.57,0.25,1.02,0.69,1.34c0.44,0.32,1,0.48,1.66,0.48c0.45,0,0.83-0.08,1.13-0.25C141.18,161.42,141.41,161.15,141.56,160.79
		L141.56,160.79z M141.73,158.83c-0.02-0.56-0.23-0.99-0.64-1.28c-0.41-0.29-0.91-0.44-1.49-0.44c-0.63,0-1.14,0.16-1.55,0.46
		c-0.41,0.31-0.61,0.72-0.6,1.25H141.73L141.73,158.83z M162.33,159.4l2.93,0.63c-0.45,1.1-1.2,1.92-2.24,2.46
		c-1.04,0.53-2.37,0.8-3.98,0.8c-1.99,0-3.62-0.46-4.9-1.37c-1.28-0.92-1.92-2.17-1.92-3.76c0-1.68,0.65-2.99,1.93-3.92
		c1.29-0.93,2.98-1.39,5.08-1.39c1.83,0,3.32,0.36,4.46,1.1c0.68,0.43,1.19,1.05,1.53,1.86l-2.99,0.48
		c-0.17-0.52-0.54-0.94-1.11-1.24c-0.56-0.3-1.24-0.45-2.05-0.45c-1.11,0-2.01,0.27-2.7,0.81c-0.69,0.54-1.04,1.41-1.04,2.61
		c0,1.28,0.34,2.19,1.02,2.73c0.68,0.54,1.57,0.81,2.65,0.81c0.81,0,1.5-0.17,2.07-0.52C161.66,160.68,162.08,160.14,162.33,159.4
		L162.33,159.4z M170.7,153.02v3.71c0.93-0.73,2.03-1.1,3.32-1.1c0.66,0,1.26,0.09,1.79,0.25c0.53,0.16,0.93,0.38,1.2,0.63
		c0.27,0.26,0.45,0.54,0.55,0.86c0.1,0.31,0.15,0.8,0.15,1.45v4.29h-2.87v-3.87c0-0.77-0.06-1.25-0.16-1.46
		c-0.11-0.21-0.3-0.37-0.58-0.49c-0.28-0.12-0.62-0.18-1.04-0.18c-0.48,0-0.9,0.08-1.28,0.23c-0.38,0.16-0.65,0.39-0.82,0.71
		c-0.17,0.31-0.26,0.78-0.26,1.39v3.67h-2.87v-10.1H170.7L170.7,153.02z M186.89,160.79l2.86,0.32c-0.37,0.71-0.95,1.25-1.74,1.62
		c-0.79,0.37-1.78,0.55-2.98,0.55c-1.89,0-3.28-0.41-4.19-1.25c-0.72-0.67-1.07-1.51-1.07-2.52c0-1.21,0.47-2.16,1.41-2.85
		c0.94-0.69,2.13-1.03,3.56-1.03c1.61,0,2.89,0.36,3.82,1.08c0.93,0.72,1.38,1.82,1.34,3.3h-7.19c0.02,0.57,0.25,1.02,0.69,1.34
		c0.44,0.32,1,0.48,1.66,0.48c0.45,0,0.83-0.08,1.13-0.25C186.51,161.42,186.74,161.15,186.89,160.79L186.89,160.79z M187.06,158.83
		c-0.02-0.56-0.23-0.99-0.64-1.28c-0.41-0.29-0.91-0.44-1.49-0.44c-0.63,0-1.14,0.16-1.55,0.46c-0.41,0.31-0.61,0.72-0.6,1.25
		H187.06L187.06,158.83z M192.03,155.8h2.65v1c0.94-0.78,2.07-1.16,3.38-1.16c0.69,0,1.3,0.1,1.81,0.29
		c0.51,0.19,0.93,0.48,1.26,0.87c0.47-0.39,0.99-0.68,1.54-0.87c0.55-0.19,1.14-0.29,1.77-0.29c0.79,0,1.47,0.11,2.02,0.33
		c0.55,0.22,0.96,0.54,1.23,0.96c0.2,0.31,0.3,0.82,0.3,1.52v4.68h-2.87v-4.18c0-0.73-0.1-1.19-0.3-1.41
		c-0.26-0.27-0.67-0.41-1.22-0.41c-0.4,0-0.78,0.08-1.14,0.25c-0.35,0.16-0.61,0.41-0.76,0.73c-0.16,0.32-0.24,0.82-0.24,1.51v3.51
		h-2.87v-4.01c0-0.71-0.05-1.17-0.15-1.38c-0.1-0.21-0.26-0.36-0.47-0.46c-0.22-0.1-0.51-0.15-0.87-0.15
		c-0.44,0-0.84,0.08-1.19,0.24c-0.36,0.16-0.61,0.39-0.76,0.7c-0.15,0.3-0.23,0.8-0.23,1.51v3.55h-2.87V155.8L192.03,155.8z
		 M210.85,154.81v-1.79h2.87v1.79H210.85L210.85,154.81z M210.85,163.12v-7.31h2.87v7.31H210.85L210.85,163.12z M226.12,157.96
		l-2.83,0.34c-0.09-0.38-0.31-0.67-0.65-0.86c-0.34-0.19-0.77-0.29-1.31-0.29c-0.72,0-1.29,0.17-1.71,0.5
		c-0.43,0.33-0.64,0.89-0.64,1.67c0,0.87,0.22,1.48,0.65,1.84c0.43,0.36,1.01,0.54,1.74,0.54c0.55,0,0.99-0.1,1.34-0.31
		c0.35-0.21,0.59-0.57,0.74-1.08l2.82,0.32c-0.29,0.87-0.86,1.53-1.69,1.98c-0.83,0.45-1.94,0.67-3.34,0.67
		c-1.59,0-2.85-0.34-3.79-1.01c-0.94-0.67-1.42-1.61-1.42-2.8c0-1.21,0.47-2.15,1.42-2.82c0.95-0.68,2.23-1.01,3.84-1.01
		c1.32,0,2.37,0.19,3.15,0.58C225.21,156.59,225.78,157.18,226.12,157.96L226.12,157.96z M230.44,158.03l-2.6-0.32
		c0.29-0.71,0.79-1.23,1.51-1.57c0.72-0.34,1.78-0.51,3.19-0.51c1.28,0,2.23,0.1,2.86,0.31c0.62,0.2,1.07,0.46,1.32,0.78
		c0.25,0.32,0.38,0.89,0.38,1.73l-0.03,2.26c0,0.64,0.04,1.12,0.14,1.42c0.09,0.3,0.27,0.63,0.52,0.98h-2.84
		c-0.07-0.13-0.17-0.32-0.28-0.57c-0.05-0.11-0.08-0.19-0.1-0.23c-0.49,0.32-1.01,0.56-1.57,0.72c-0.56,0.16-1.15,0.24-1.79,0.24
		c-1.12,0-2-0.2-2.64-0.61c-0.65-0.41-0.97-0.93-0.97-1.55c0-0.41,0.15-0.78,0.44-1.11c0.29-0.32,0.7-0.57,1.23-0.74
		c0.53-0.17,1.29-0.32,2.28-0.45c1.34-0.17,2.27-0.33,2.79-0.48v-0.19c0-0.37-0.14-0.64-0.41-0.8c-0.27-0.16-0.79-0.24-1.54-0.24
		c-0.51,0-0.91,0.07-1.2,0.2C230.85,157.45,230.62,157.69,230.44,158.03L230.44,158.03z M234.28,159.6
		c-0.37,0.08-0.95,0.18-1.75,0.3c-0.79,0.11-1.31,0.23-1.56,0.34c-0.37,0.18-0.56,0.41-0.56,0.68c0,0.27,0.15,0.51,0.45,0.7
		c0.3,0.2,0.68,0.3,1.14,0.3c0.52,0,1.01-0.12,1.48-0.34c0.35-0.17,0.58-0.39,0.68-0.64c0.08-0.16,0.11-0.48,0.11-0.94V159.6
		L234.28,159.6z M239.93,163.12v-10.1h2.87v10.1H239.93L239.93,163.12z M244.73,161.03l2.88-0.3c0.12,0.38,0.37,0.66,0.75,0.86
		c0.37,0.2,0.9,0.29,1.57,0.29c0.74,0,1.3-0.09,1.67-0.28c0.25-0.13,0.38-0.3,0.38-0.52c0-0.15-0.07-0.27-0.2-0.37
		c-0.14-0.09-0.46-0.18-0.96-0.25c-2.32-0.34-3.78-0.66-4.4-0.94c-0.86-0.39-1.29-0.95-1.29-1.65c0-0.63,0.37-1.17,1.11-1.6
		c0.74-0.43,1.89-0.65,3.45-0.65c1.48,0,2.59,0.16,3.31,0.49c0.72,0.33,1.22,0.81,1.49,1.45l-2.71,0.34
		c-0.11-0.28-0.33-0.5-0.66-0.65c-0.32-0.15-0.78-0.23-1.38-0.23c-0.76,0-1.3,0.07-1.62,0.21c-0.22,0.1-0.32,0.23-0.32,0.39
		c0,0.14,0.09,0.25,0.29,0.35c0.26,0.13,1.15,0.31,2.68,0.55c1.53,0.23,2.59,0.52,3.2,0.86c0.6,0.35,0.9,0.83,0.9,1.44
		c0,0.67-0.42,1.25-1.25,1.73c-0.83,0.48-2.06,0.72-3.68,0.72c-1.48,0-2.65-0.2-3.51-0.61
		C245.55,162.27,244.99,161.72,244.73,161.03L244.73,161.03z M55.58,177.64l-1.74,1.49c-0.85-0.28-1.67-0.67-2.45-1.16
		c-0.61,0.37-1.25,0.64-1.93,0.81c-0.68,0.17-1.49,0.26-2.43,0.26c-1.86,0-3.27-0.35-4.21-1.06c-0.73-0.55-1.09-1.18-1.09-1.89
		c0-0.65,0.29-1.23,0.86-1.74c0.57-0.52,1.43-0.97,2.56-1.35c-0.51-0.41-0.9-0.8-1.15-1.17c-0.26-0.37-0.39-0.72-0.39-1.05
		c0-0.61,0.36-1.13,1.09-1.55c0.73-0.42,1.76-0.64,3.1-0.64c1.29,0,2.3,0.22,3.03,0.67c0.73,0.44,1.09,0.99,1.09,1.63
		c0,0.41-0.18,0.8-0.54,1.16c-0.36,0.37-1.09,0.78-2.19,1.25l2.08,1.85c0.24-0.29,0.46-0.68,0.63-1.15l2.59,0.4
		c-0.26,0.62-0.49,1.07-0.68,1.36c-0.19,0.29-0.39,0.53-0.61,0.72c0.32,0.2,0.73,0.42,1.24,0.67
		C54.97,177.4,55.34,177.56,55.58,177.64L55.58,177.64z M47.76,172.15l0.78-0.4c0.57-0.3,0.86-0.59,0.86-0.89
		c0-0.25-0.14-0.46-0.41-0.64c-0.28-0.17-0.65-0.26-1.12-0.26c-0.45,0-0.81,0.08-1.07,0.23c-0.26,0.15-0.39,0.33-0.39,0.53
		c0,0.24,0.22,0.53,0.66,0.87L47.76,172.15L47.76,172.15z M46.64,174.25c-0.66,0.23-1.15,0.49-1.48,0.81
		c-0.33,0.32-0.49,0.64-0.49,0.97c0,0.42,0.21,0.76,0.61,1.02c0.4,0.26,0.95,0.39,1.63,0.39c0.45,0,0.88-0.06,1.3-0.18
		c0.42-0.12,0.87-0.32,1.36-0.59L46.64,174.25L46.64,174.25z M63.27,178.87v-10.1h10.27v1.71h-7.24v2.39h6.25v1.71h-6.25v4.29H63.27
		L63.27,178.87z M82.28,176.55l2.86,0.32c-0.37,0.71-0.95,1.25-1.74,1.61c-0.79,0.37-1.78,0.56-2.98,0.56
		c-1.89,0-3.28-0.41-4.19-1.25c-0.72-0.67-1.07-1.51-1.07-2.52c0-1.21,0.47-2.16,1.41-2.85c0.94-0.69,2.13-1.03,3.56-1.03
		c1.61,0,2.89,0.36,3.82,1.08c0.93,0.72,1.38,1.82,1.34,3.3h-7.19c0.02,0.57,0.25,1.02,0.69,1.34c0.44,0.32,1,0.48,1.66,0.48
		c0.45,0,0.83-0.08,1.13-0.25C81.9,177.18,82.13,176.91,82.28,176.55L82.28,176.55z M82.45,174.59c-0.02-0.56-0.23-0.99-0.64-1.28
		c-0.41-0.29-0.91-0.44-1.49-0.44c-0.63,0-1.14,0.16-1.55,0.46c-0.41,0.31-0.61,0.72-0.6,1.25H82.45L82.45,174.59z M90.39,178.87
		h-2.87v-7.31h2.66v1.04c0.46-0.49,0.87-0.82,1.23-0.97c0.37-0.15,0.78-0.24,1.24-0.24c0.65,0,1.28,0.12,1.89,0.37l-0.89,1.69
		c-0.48-0.21-0.93-0.32-1.35-0.32c-0.4,0-0.74,0.07-1.02,0.22c-0.28,0.15-0.5,0.42-0.66,0.81c-0.16,0.39-0.24,1.21-0.24,2.45V178.87
		L90.39,178.87z M100.75,171.56v1.54h-1.96v2.95c0,0.6,0.02,0.95,0.06,1.04c0.04,0.1,0.12,0.18,0.25,0.24
		c0.13,0.06,0.3,0.1,0.48,0.1c0.27,0,0.65-0.06,1.16-0.18l0.24,1.5c-0.67,0.19-1.42,0.29-2.27,0.29c-0.52,0-0.98-0.06-1.4-0.18
		c-0.41-0.12-0.72-0.27-0.91-0.46c-0.2-0.19-0.33-0.44-0.4-0.75c-0.06-0.22-0.09-0.68-0.09-1.36v-3.19h-1.32v-1.54h1.32v-1.46
		l2.88-1.13v2.58H100.75L100.75,171.56z M102.75,170.57v-1.79h2.87v1.79H102.75L102.75,170.57z M102.75,178.87v-7.31h2.87v7.31
		H102.75L102.75,178.87z M108.56,178.87v-10.1h2.87v10.1H108.56L108.56,178.87z M114.37,170.57v-1.79h2.87v1.79H114.37
		L114.37,170.57z M114.37,178.87v-7.31h2.87v7.31H114.37L114.37,178.87z M119.03,178.87v-1.51l4.06-3.15
		c0.67-0.51,1.16-0.88,1.48-1.1c-0.33,0.01-0.77,0.02-1.31,0.03l-3.83,0.01v-1.6h8.97v1.37l-4.15,3.22l-1.46,1.07
		c0.79-0.03,1.29-0.05,1.48-0.05h4.44v1.7H119.03L119.03,178.87z M136.92,176.55l2.86,0.32c-0.37,0.71-0.95,1.25-1.74,1.61
		c-0.79,0.37-1.78,0.56-2.98,0.56c-1.89,0-3.28-0.41-4.19-1.25c-0.71-0.67-1.07-1.51-1.07-2.52c0-1.21,0.47-2.16,1.41-2.85
		c0.94-0.69,2.13-1.03,3.56-1.03c1.61,0,2.89,0.36,3.82,1.08c0.93,0.72,1.38,1.82,1.34,3.3h-7.19c0.02,0.57,0.25,1.02,0.69,1.34
		c0.44,0.32,1,0.48,1.66,0.48c0.45,0,0.83-0.08,1.13-0.25C136.53,177.18,136.76,176.91,136.92,176.55L136.92,176.55z M137.08,174.59
		c-0.02-0.56-0.23-0.99-0.64-1.28c-0.41-0.29-0.91-0.44-1.49-0.44c-0.63,0-1.14,0.16-1.55,0.46c-0.41,0.31-0.61,0.72-0.6,1.25
		H137.08L137.08,174.59z M145.02,178.87h-2.87v-7.31h2.66v1.04c0.46-0.49,0.87-0.82,1.23-0.97c0.37-0.15,0.78-0.24,1.24-0.24
		c0.65,0,1.28,0.12,1.89,0.37l-0.89,1.69c-0.48-0.21-0.93-0.32-1.35-0.32c-0.4,0-0.74,0.07-1.02,0.22c-0.28,0.15-0.5,0.42-0.66,0.81
		c-0.16,0.39-0.24,1.21-0.24,2.45V178.87L145.02,178.87z M149.4,176.79l2.88-0.3c0.12,0.38,0.37,0.66,0.75,0.86
		c0.37,0.2,0.9,0.29,1.57,0.29c0.74,0,1.3-0.09,1.67-0.28c0.25-0.13,0.38-0.3,0.38-0.51c0-0.15-0.07-0.27-0.21-0.37
		c-0.14-0.09-0.46-0.18-0.96-0.25c-2.31-0.34-3.78-0.66-4.4-0.94c-0.86-0.4-1.29-0.95-1.29-1.65c0-0.63,0.37-1.17,1.11-1.6
		c0.74-0.43,1.89-0.65,3.45-0.65c1.49,0,2.59,0.16,3.31,0.49c0.72,0.33,1.22,0.81,1.49,1.45l-2.71,0.34
		c-0.11-0.28-0.33-0.5-0.66-0.65c-0.32-0.15-0.78-0.23-1.38-0.23c-0.76,0-1.3,0.07-1.62,0.21c-0.22,0.1-0.32,0.23-0.32,0.39
		c0,0.14,0.09,0.25,0.29,0.35c0.26,0.13,1.15,0.31,2.68,0.55c1.53,0.23,2.59,0.52,3.2,0.86c0.6,0.35,0.9,0.83,0.9,1.44
		c0,0.67-0.42,1.25-1.25,1.73c-0.83,0.48-2.06,0.72-3.69,0.72c-1.48,0-2.65-0.2-3.51-0.61C150.23,178.03,149.67,177.48,149.4,176.79
		L149.4,176.79z M167.96,178.87v-10.02h3.02v8.31h7.52v1.7H167.96L167.96,178.87z M180.64,170.57v-1.79h2.87v1.79H180.64
		L180.64,170.57z M180.64,178.87v-7.31h2.87v7.31H180.64L180.64,178.87z M186.23,171.56h2.65v1c0.94-0.78,2.07-1.16,3.38-1.16
		c0.69,0,1.3,0.1,1.81,0.29c0.51,0.19,0.93,0.48,1.26,0.87c0.47-0.39,0.99-0.68,1.54-0.87c0.55-0.19,1.14-0.29,1.77-0.29
		c0.8,0,1.47,0.11,2.02,0.33c0.55,0.22,0.96,0.54,1.23,0.96c0.2,0.31,0.3,0.82,0.3,1.52v4.68h-2.87v-4.18c0-0.73-0.1-1.19-0.3-1.41
		c-0.27-0.28-0.67-0.41-1.22-0.41c-0.4,0-0.78,0.08-1.14,0.25c-0.35,0.16-0.61,0.41-0.76,0.73s-0.24,0.82-0.24,1.51v3.51h-2.87
		v-4.01c0-0.71-0.05-1.17-0.15-1.38c-0.1-0.21-0.26-0.36-0.47-0.46c-0.22-0.1-0.51-0.15-0.87-0.15c-0.44,0-0.84,0.08-1.19,0.24
		c-0.36,0.16-0.61,0.39-0.76,0.7c-0.15,0.3-0.23,0.8-0.23,1.51v3.56h-2.87V171.56L186.23,171.56z M205.05,170.57v-1.79h2.87v1.79
		H205.05L205.05,170.57z M205.05,178.87v-7.31h2.87v7.31H205.05L205.05,178.87z M215.83,171.56v1.54h-1.96v2.95
		c0,0.6,0.02,0.95,0.06,1.04c0.04,0.1,0.12,0.18,0.25,0.24c0.13,0.06,0.3,0.1,0.48,0.1c0.27,0,0.65-0.06,1.16-0.18l0.24,1.5
		c-0.67,0.19-1.42,0.29-2.27,0.29c-0.52,0-0.98-0.06-1.4-0.18c-0.42-0.12-0.72-0.27-0.91-0.46s-0.33-0.44-0.4-0.75
		c-0.06-0.22-0.09-0.68-0.09-1.36v-3.19h-1.32v-1.54h1.32v-1.46l2.88-1.13v2.58H215.83L215.83,171.56z M224.1,176.55l2.86,0.32
		c-0.37,0.71-0.95,1.25-1.74,1.61c-0.79,0.37-1.78,0.56-2.98,0.56c-1.89,0-3.28-0.41-4.19-1.25c-0.71-0.67-1.07-1.51-1.07-2.52
		c0-1.21,0.47-2.16,1.41-2.85c0.94-0.69,2.13-1.03,3.56-1.03c1.61,0,2.89,0.36,3.82,1.08c0.93,0.72,1.38,1.82,1.34,3.3h-7.19
		c0.02,0.57,0.25,1.02,0.69,1.34c0.44,0.32,1,0.48,1.66,0.48c0.45,0,0.83-0.08,1.13-0.25C223.72,177.18,223.95,176.91,224.1,176.55
		L224.1,176.55z M224.27,174.59c-0.02-0.56-0.23-0.99-0.64-1.28c-0.41-0.29-0.91-0.44-1.49-0.44c-0.63,0-1.14,0.16-1.55,0.46
		c-0.41,0.31-0.61,0.72-0.6,1.25H224.27L224.27,174.59z M239.4,178.87h-2.66v-1.07c-0.44,0.42-0.97,0.73-1.57,0.93
		c-0.6,0.21-1.21,0.31-1.82,0.31c-1.25,0-2.31-0.34-3.2-1.02c-0.89-0.68-1.33-1.62-1.33-2.83c0-1.24,0.43-2.18,1.3-2.83
		c0.86-0.64,1.96-0.97,3.28-0.97c1.21,0,2.26,0.34,3.14,1.02v-3.64h2.87V178.87L239.4,178.87z M231.75,175.06
		c0,0.78,0.16,1.35,0.48,1.7c0.46,0.5,1.11,0.76,1.94,0.76c0.66,0,1.22-0.19,1.69-0.57c0.46-0.38,0.69-0.95,0.69-1.7
		c0-0.84-0.23-1.45-0.67-1.82c-0.45-0.37-1.03-0.55-1.73-0.55c-0.68,0-1.25,0.18-1.71,0.55
		C231.97,173.79,231.75,174.33,231.75,175.06L231.75,175.06z"/>
</g>
</svg>
