<svg xmlns="http://www.w3.org/2000/svg" viewBox="0 0 100 100" id="Child">
  <path d="M69.58 36.7a16.809 16.809 0 0 0-11.931-4.915h-.087c4.118-2.557 6.875-7.108 6.875-12.302C64.438 11.497 57.94 5 49.954 5S35.47 11.497 35.47 19.483c0 5.194 2.757 9.745 6.876 12.302h-.116a16.818 16.818 0 0 0-11.936 4.92L16.842 50.172a6.621 6.621 0 0 0-1.935 5.003 6.64 6.64 0 0 0 2.425 4.801 6.402 6.402 0 0 0 4.102 1.448 7.016 7.016 0 0 0 4.924-2.053l7.719-7.799v11.524l-7.441 7.435c-3.665 3.674-3.665 9.653.002 13.329l9.073 9.074A6.999 6.999 0 0 0 40.697 95a7.114 7.114 0 0 0 5.151-2.226c2.584-2.742 2.451-7.218-.305-9.984l-4.064-4.033 5.604-5.058c1.898.201 3.815.201 5.714 0l5.604 5.058-4.072 4.042c-2.747 2.759-2.88 7.234-.295 9.978A7.112 7.112 0 0 0 59.183 95a7.006 7.006 0 0 0 4.987-2.065l9.075-9.076c3.665-3.674 3.665-9.653-.003-13.33l-7.438-7.432v-11.56l7.847 7.847a7.006 7.006 0 0 0 4.916 2.046 6.406 6.406 0 0 0 4.102-1.448 6.64 6.64 0 0 0 2.425-4.801 6.62 6.62 0 0 0-1.937-5.006L69.58 36.7zM39.47 19.483C39.47 13.703 44.173 9 49.954 9c5.78 0 10.483 4.703 10.483 10.483 0 5.781-4.703 10.484-10.483 10.484-5.781.001-10.484-4.702-10.484-10.484zm30.943 53.872a5.447 5.447 0 0 1 .002 7.677l-9.073 9.074c-1.18 1.181-3.248 1.146-4.398-.074-1.119-1.188-1.021-3.166.211-4.402l5.563-5.522a1.999 1.999 0 0 0-.069-2.905l-6.038-5.45 7-5.194 6.802 6.796zm9.722-16.469a2.456 2.456 0 0 1-1.568.544 2.978 2.978 0 0 1-2.088-.874L65.218 45.295a2 2 0 0 0-3.414 1.414V57.66h-3.555a2 2 0 0 0 0 4h3.555v1.259l-9.102 6.753a22.984 22.984 0 0 1-5.523 0l-3.165-2.347a2.001 2.001 0 0 0-2.383 3.213l1.638 1.215-6.038 5.45a1.999 1.999 0 0 0-.069 2.905l5.556 5.514c1.239 1.245 1.338 3.224.221 4.409-1.154 1.223-3.221 1.257-4.4.076l-9.071-9.072c-2.111-2.117-2.111-5.562-.003-7.676l6.806-6.799 1.092.81a1.994 1.994 0 0 0 2.797-.413 1.999 1.999 0 0 0-.413-2.798l-1.67-1.238v-1.26h14.341a2 2 0 0 0 0-4H38.076V46.709a2 2 0 0 0-3.422-1.408L23.521 56.55a2.976 2.976 0 0 1-2.088.874c-.412 0-1.02-.095-1.568-.544-.585-.479-.927-1.153-.963-1.9s.234-1.448.766-1.978L33.12 39.536a12.84 12.84 0 0 1 9.11-3.751h15.419c3.442 0 6.678 1.332 9.111 3.753l13.575 13.474c.527.525.798 1.227.762 1.974s-.377 1.421-.962 1.9z" fill="#27a679" class="color000000 svgShape"></path>
</svg>
