<svg xmlns="http://www.w3.org/2000/svg" viewBox="0 0 2500 2500" id="Diabetes">
  <path d="m1796.88,273.44H703.12c-21.57,0-39.06,17.49-39.06,39.06v1015.63c0,21.57,17.49,39.06,39.06,39.06h1093.75c21.57,0,39.06-17.49,39.06-39.06V312.5c0-21.57-17.49-39.06-39.06-39.06Zm-39.06,1015.63h-1015.62V351.56h1015.62v937.5Z" fill="#27a679" class="color000000 svgShape"></path>
  <path d="M1144.26 1160.44c7.63 7.62 17.62 11.44 27.62 11.44s19.99-3.81 27.62-11.44l468.75-468.75c15.25-15.26 15.25-39.99 0-55.25l-156.25-156.25c-7.33-7.32-17.26-11.44-27.62-11.44s-20.29 4.12-27.62 11.44l-284.88 284.88-128.63-128.63c-15.26-15.25-39.99-15.25-55.25 0l-156.25 156.25c-15.25 15.26-15.25 39.99 0 55.25l312.5 312.5zm-128.63-441.13l128.63 128.63c15.26 15.25 39.99 15.25 55.25 0l284.88-284.88 101 101.01-413.51 413.51-257.26-257.26 101.01-101.01zM1132.81 1484.37h-429.69c-21.57 0-39.06 17.49-39.06 39.06s17.49 39.06 39.06 39.06h429.69c21.57 0 39.06-17.49 39.06-39.06s-17.49-39.06-39.06-39.06zM1796.88 1484.37h-429.69c-21.57 0-39.06 17.49-39.06 39.06s17.49 39.06 39.06 39.06h429.69c21.57 0 39.06-17.49 39.06-39.06s-17.49-39.06-39.06-39.06z" fill="#27a679" class="color000000 svgShape"></path>
  <path d="m1250,0C841.69,0,429.69,96.63,429.69,312.5v898.44c0,360.32,230.8,674.87,574.32,782.73,11.95,3.75,24.98,1.54,35.02-5.93,10.05-7.48,15.9-19.33,15.74-31.85l-.08-2.76c0-107.69,87.62-195.31,195.31-195.31s195.31,87.62,195.29,195.8l-.06,2.27c-.17,12.52,5.69,24.37,15.74,31.85,6.82,5.08,15.02,7.72,23.33,7.72,3.92,0,7.86-.59,11.7-1.79,343.52-107.86,574.32-422.42,574.32-782.73V312.5C2070.31,96.63,1658.31,0,1250,0Zm742.19,1210.94c0,309.57-188.26,581.8-473.36,692.01-23.63-126.89-135.19-223.26-268.83-223.26s-245.19,96.37-268.83,223.26c-285.1-110.22-473.36-382.44-473.36-692.01V312.5c0-131.43,326.01-234.38,742.19-234.38s742.19,102.95,742.19,234.38v898.44Z" fill="#27a679" class="color000000 svgShape"></path>
  <path d="m1250,1816.41c-75.39,0-136.72,61.33-136.72,136.72v507.81c0,21.57,17.49,39.06,39.06,39.06h195.31c21.57,0,39.06-17.49,39.06-39.06v-507.81c0-75.39-61.33-136.72-136.72-136.72Zm58.59,605.47h-117.19v-468.75c0-32.31,26.28-58.59,58.59-58.59s58.59,26.28,58.59,58.59v468.75Z" fill="#27a679" class="color000000 svgShape"></path>
</svg>
