<svg xmlns="http://www.w3.org/2000/svg" viewBox="0 0 48.02 44.06" id="HeartHealth">
  <path d="M33.54 0A14.35 14.35 0 0 0 24 3.58 14.31 14.31 0 0 0 14.49 0C1.71 0-4.89 15.57 4.26 24.71l19 19a1 1 0 0 0 1.41 0l19.05-19C52.81 15.67 46.48 0 33.54 0Zm8.82 23.3L24 41.64 5.67 23.3a12.54 12.54 0 0 1-1.77-2.24H13a1 1 0 0 0 .94-.65l1.84-4.92L19 29.28a1 1 0 0 0 1 .78 1 1 0 0 0 1-.78L23.36 19l.76 1.51a1 1 0 0 0 .89.56h5a1 1 0 0 0 0-2h-4.38l-1.72-3.45a1 1 0 0 0-1.87.22l-2 8.82L17 11.83a1 1 0 0 0-1.91-.13l-2.76 7.36H2.89A12.48 12.48 0 0 1 23.31 5.65a1 1 0 0 0 1.41 0A12.48 12.48 0 0 1 42.36 23.3Z" fill="#27a679" class="color000000 svgShape"></path>
</svg>
