<svg xmlns="http://www.w3.org/2000/svg" enable-background="new 0 0 469.582 469.582" viewBox="0 0 469.582 469.582" id="Runningrun">
  <path d="M160.289,456.34c-18.658-16.927-19.971-46.898-2.858-65.394l24.373-26.343l-25.17-21.89l-79.638,79.71
			c-17.138,17.154-45.95,17.136-63.065-0.036c-17.346-17.399-17.33-45.696,0.034-63.078l71.669-71.738
			c5.466-5.471,14.329-5.474,19.799-0.01c5.47,5.465,5.475,14.329,0.01,19.799l-71.669,71.738
			c-6.475,6.481-6.48,17.034-0.013,23.522c6.334,6.355,17.085,6.361,23.427,0.014l88.871-88.953
			c5.2-5.204,13.539-5.497,19.092-0.669l45.922,39.937c5.882,5.117,6.384,14.348,1.089,20.072l-34.178,36.94
			c-6.733,7.277-6.226,18.976,1.118,25.639c7.269,6.595,18.6,6.09,25.258-1.127l41.853-45.37c13.798-14.958,12.45-39.072-2.94-52.39
			l-53.107-45.956c-6.063-5.246-6.409-14.809-0.743-20.481l81.06-81.141c5.354-5.359,14.455-5.359,19.81,0.001l51.784,51.846
			c12.577,12.592,32.241,14.263,46.753,3.972l43.362-30.747c9.586-6.798,11.518-20.634,4.189-29.813
			c-6.673-8.357-18.828-10.198-27.663-4.194l-38.335,26.043c-5.563,3.777-13.021,3.069-17.772-1.687L224.119,75.916
			c-14.03-14.047-37.433-14.043-51.46,0.005l-47.338,47.413c-6.477,6.487-6.479,17.043-0.003,23.531
			c6.338,6.349,17.087,6.353,23.427,0.004l39.76-39.805c5.354-5.36,14.457-5.361,19.812,0l38.725,38.775
			c5.459,5.467,5.458,14.322-0.002,19.788L141.72,271.048c-5.466,5.47-14.329,5.473-19.799,0.009
			c-5.47-5.465-5.475-14.329-0.01-19.799l95.435-95.526l-18.938-18.962l-29.854,29.888c-17.133,17.152-45.932,17.142-63.056-0.012
			c-17.362-17.397-17.359-45.701,0.007-63.094l47.338-47.413c24.781-24.821,66.292-24.833,91.085-0.009L364.23,176.571
			l28.751-19.532c20.86-14.172,49.534-9.83,65.277,9.882c17.143,21.468,12.548,54.227-9.874,70.126l-43.362,30.747
			c-25.692,18.219-60.496,15.262-82.759-7.025l-41.88-41.93l-60.525,60.586l41.735,36.115c27.148,23.492,29.545,66.155,5.198,92.548
			l-41.853,45.37C194.907,483.13,169.045,464.283,160.289,456.34z" fill="#27a679" class="color000000 svgShape"></path>
  <path d="M377.599,117.094c-32.247,0-58.481-26.264-58.481-58.547C319.118,26.264,345.352,0,377.599,0s58.482,26.264,58.482,58.547
			C436.082,90.83,409.846,117.094,377.599,117.094z M377.599,28c-16.808,0-30.481,13.703-30.481,30.547s13.674,30.547,30.481,30.547
			s30.482-13.704,30.482-30.547S394.407,28,377.599,28z" fill="#27a679" class="color000000 svgShape"></path>
</svg>
