<svg xmlns="http://www.w3.org/2000/svg" viewBox="0 0 512 512" id="WeighingMachine">
  <path d="M451.772 5H60.228a46 46 0 0 0-45.8 50.28l38.313 410a45.8 45.8 0 0 0 45.8 41.72h314.918a45.8 45.8 0 0 0 45.8-41.72l38.313-410A46 46 0 0 0 451.772 5Zm33.854 49.164-38.314 410A33.853 33.853 0 0 1 413.459 495H98.541a33.853 33.853 0 0 1-33.853-30.836l-38.314-410A34 34 0 0 1 60.228 17h391.544a34 34 0 0 1 33.854 37.164Z" fill="#27a679" class="color000000 svgShape"></path>
  <path d="M353.052 346.055h-194.1a23.274 23.274 0 0 0 0 46.547h194.1a23.274 23.274 0 0 0 0-46.547zm0 34.547h-194.1a11.274 11.274 0 0 1 0-22.547h194.1a11.274 11.274 0 0 1 0 22.547zM316.341 410.3H195.659a23.273 23.273 0 1 0 0 46.546h120.682a23.273 23.273 0 0 0 0-46.546zm0 34.546H195.659a11.273 11.273 0 1 1 0-22.546h120.682a11.273 11.273 0 0 1 0 22.546zM56.907 112.577c.134 0 .269 0 .4-.013a6 6 0 0 0 5.588-6.385l-.136-2.057a6 6 0 1 0-11.973.8l.137 2.057a6 6 0 0 0 5.984 5.598zm7.202 11.857a6 6 0 0 0-11.974.793l5.1 77.008a6 6 0 0 0 5.982 5.6c.133 0 .267 0 .4-.013a6 6 0 0 0 5.591-6.383zm325.081 148.2h-198.8a6 6 0 1 0 0 12h199.042a11.493 11.493 0 0 1 11.552 10.186 11.286 11.286 0 0 1-11.221 12.36h-267.2a11.492 11.492 0 0 1-11.551-10.187 11.285 11.285 0 0 1 11.221-12.359h26.149a6 6 0 0 0 0-12H122.81c-12.6 0-23.351 9.78-23.828 22.374a23.3 23.3 0 0 0 23.255 24.172h267.526a23.3 23.3 0 0 0 23.255-24.172c-.477-12.594-11.225-22.374-23.828-22.374zM130.647 192h250.706a5.817 5.817 0 0 0 6-5.78c0-72.391-58.925-131.175-131.353-131.175s-131.353 58.729-131.353 131.12a5.862 5.862 0 0 0 6 5.835zm113.722-12a13.492 13.492 0 0 1 23.263 0zm-100.525-34.573 10.067 4.284a6.048 6.048 0 0 0 2.3.514 5.975 5.975 0 0 0 2.3-11.5l-9.981-4.132a120.044 120.044 0 0 1 32.879-41.2l7.334 8.989a6 6 0 1 0 9.3-7.586l-6.894-8.447a118.642 118.642 0 0 1 60.071-19.087l-.385 11.569a6 6 0 0 0 5.8 6.2h.2a6 6 0 0 0 5.993-5.8l.395-11.846A118.634 118.634 0 0 1 320.9 86.374l-7.466 8.791a6 6 0 1 0 9.146 7.768l8.064-9.5a120.019 120.019 0 0 1 32.775 41.056l-10.438 4.224a6 6 0 1 0 4.5 11.124l10.63-4.521A118.3 118.3 0 0 1 375.2 180h-94.779A25.648 25.648 0 0 0 262 162.491v-48.572a6 6 0 1 0-12 0v48.572A25.652 25.652 0 0 0 231.579 180H136.8a118.071 118.071 0 0 1 7.044-34.573z" fill="#27a679" class="color000000 svgShape"></path>
</svg>