<svg xmlns="http://www.w3.org/2000/svg" enable-background="new 0 0 66 66" viewBox="0 0 66 66" id="Womb">
  <path fill="#27a679" d="M42.1 55l5-2.1c.5-.2.8-.6.8-1.2 0-.5-.2-1-.6-1.3 0 0 0 0 0 0L45 49.2c-.1-.8-.1-1.5-.2-2.1-.1-2.1-.5-4.7-3.1-4.7l-.9 0 1.3-1.9c.6-.9.5-2.1-.2-3-1-1.1-2.8-1-3.7.2l-1.1 1.5-.1-.1c.2-.4.2-.9 0-1.3-.2-.5-.7-.9-1.2-1.1l-.1 0c2.4-7.5-8.5-12.7-12.8-5.5-1.8 3.1-1 7 1.7 9.1-.5 13.1 9.7 17.5 14.6 8.6 0 0 0-.1.1 0 .1.4.4 2.2.8 5.1C40.3 54.8 41.2 55.4 42.1 55zM39.9 47c-.2-.1-.4-.1-.6-.1-.7 0-1.5.4-1.8 1.1-4.2 7.7-11.4 2.2-10.8-8.1 0-.4-.2-.7-.5-.9-2.2-1.5-2.9-4.4-1.6-6.7 3.2-5.4 11.6-1 8.8 4.7-.2.3-.1.7.1 1 .1.2.3.3.6.4l.9.2c-.2.4-.2.8-.1 1.2.2.5.5.9 1 1.1l.6.2c.6.2 1.3.1 1.8-.3.1-.1.1-.1.2-.2l1.3-1.8c.1-.2.4-.3.6 0 .1.1.1.3 0 .5l-2.3 3.5c-.2.3-.2.7 0 1 .2.3.5.5.9.5l2.6 0c.9.2 1 .5 1.2 2.8.1.8.1 1.7.3 2.7 0 .3.2.6.5.7l1.6 1L42 52.9c-.3-1.8-.6-3.8-.7-4.3C41.2 47.8 40.6 47.2 39.9 47zM17.6 43c2.7-3 2.9-7.6.5-10.8-5.6-9-7.1-19.8-2.6-29.7.2-.5 0-1.1-.5-1.3-.5-.2-1.1 0-1.3.5C8.7 12.5 11 26.1 16.5 33.3c1.9 2.5 1.7 6-.4 8.3-5.8 6.5-3.6 16.8 2.9 22.7.4.4 1 .3 1.4-.1.4-.4.3-1-.1-1.4C14.7 57.7 12.6 48.6 17.6 43z" class="color010101 svgShape"></path>
  <path fill="#27a679" d="M41,23.9c5.3-3.5,4.7-10.7-0.3-13.8c-3.3-2.1-1.4-7.2-1.4-8c0-0.6-0.4-1-1-1.1c-0.5,0-1,0.4-1,0.9
		c-0.6,3.8-1.3,7.5,2.3,9.8c4.1,2.6,4.5,9-1.3,11.2c-0.4,0.1-0.6,0.5-0.6,0.9c0,0.4,0.2,0.8,0.6,0.9c16.5,6.9,21.1,20.9,3.3,36.2
		c-0.2,0.2-0.4,0.5-0.3,0.8s0.2,0.6,0.5,0.8l3.6,2.3c0.5,0.3,1.1,0.2,1.4-0.3c0.3-0.5,0.2-1.1-0.3-1.4L44,61.6
		C60.9,46.4,57.3,32.3,41,23.9z" class="color010101 svgShape"></path>
</svg>
